<svg width="600" height="528" viewBox="0 0 600 528" fill="none" xmlns="http://www.w3.org/2000/svg">
<path d="M0 0H600V527H0V0Z" fill="#8257E5"/>
<path d="M305.753 525.21C306.966 518.846 310.732 513.011 316.02 509.286" stroke="#04D361" stroke-width="0.779" stroke-miterlimit="10"/>
<path d="M305.589 527C305.817 521.686 307.868 508.893 312.719 500.885" stroke="#04D361" stroke-width="0.779" stroke-miterlimit="10"/>
<path d="M305.662 526.343C306.501 516.865 306.428 506.391 304.95 496.986" stroke="#04D361" stroke-width="0.779" stroke-miterlimit="10"/>
<path d="M316.793 506.811L316.793 506.811C316.746 506.894 316.699 506.977 316.652 507.061C315.993 508.226 315.334 509.389 314.522 510.489C314.735 510.418 314.96 510.332 315.194 510.238C315.312 510.191 315.434 510.141 315.558 510.091C315.815 509.986 316.08 509.878 316.331 509.784C316.704 509.645 317.091 509.52 317.452 509.467L317.452 509.467C319.126 509.221 320.835 509.288 322.477 509.502L322.477 509.502C323.758 509.669 325.036 509.923 326.293 510.173C326.701 510.254 327.108 510.335 327.511 510.412C329.171 510.729 330.804 510.992 332.45 511.014L332.45 511.014C333.384 511.027 334.376 510.905 335.214 510.583C336.049 510.261 336.693 509.756 337.019 509.019L337.02 509.018C337.559 507.812 337.004 506.222 335.88 505.287L335.879 505.286C334.766 504.353 333.24 503.982 331.665 503.83L331.665 503.83C331.092 503.774 330.519 503.745 329.932 503.715C329.715 503.704 329.497 503.693 329.276 503.681C328.466 503.635 327.636 503.57 326.814 503.413L326.813 503.412C326.322 503.317 325.837 503.191 325.366 503.065C325.291 503.045 325.217 503.025 325.144 503.005C324.747 502.898 324.361 502.794 323.975 502.706C323.062 502.497 322.206 502.391 321.368 502.554L316.793 506.811ZM316.793 506.811L316.794 506.809M316.793 506.811L316.794 506.809M316.794 506.809C317.915 504.811 319.359 502.945 321.368 502.554L316.794 506.809Z" fill="#04D361" stroke="#04D361"/>
<path d="M312.107 502.007C312.732 501.484 313.324 500.836 313.937 500.143C314.017 500.053 314.096 499.963 314.176 499.872C314.913 499.036 315.687 498.157 316.547 497.472C318.904 495.588 321.759 494.133 324.835 493.895L312.107 502.007ZM312.107 502.007C312.138 501.827 312.185 501.618 312.249 501.381C312.468 500.575 312.856 499.547 313.3 498.485C313.973 496.877 314.75 495.246 315.223 494.253C315.376 493.934 315.496 493.68 315.572 493.515M312.107 502.007L315.572 493.515M315.572 493.515C315.572 493.515 315.572 493.515 315.572 493.516L315.118 493.306L315.572 493.514C315.572 493.515 315.572 493.515 315.572 493.515ZM340.001 488.23L340 488.229C339.352 487.134 338.032 486.513 336.646 486.304L340.001 488.23ZM340.001 488.23C340.501 489.07 340.528 490.097 340.185 491.086M340.001 488.23L340.185 491.086M340.185 491.086C339.841 492.077 339.138 492.983 338.257 493.541M340.185 491.086L338.257 493.541M338.257 493.541C336.447 494.688 334.122 494.77 331.841 494.517M338.257 493.541L331.841 494.517M331.841 494.517C331.18 494.444 330.544 494.35 329.899 494.254M331.841 494.517L329.899 494.254M329.899 494.254C329.409 494.182 328.913 494.109 328.397 494.043M329.899 494.254L328.397 494.043M328.397 494.043C327.234 493.895 326.044 493.799 324.836 493.894L328.397 494.043ZM312.085 502.594C312.085 502.594 312.085 502.593 312.085 502.592L312.085 502.594Z" fill="#04D361" stroke="#04D361"/>
<path d="M307.229 487.871L307.229 487.872C307.522 489.665 307.224 491.507 306.662 493.283C306.622 493.41 306.574 493.57 306.518 493.753C306.35 494.313 306.114 495.093 305.824 495.831C305.632 496.319 305.427 496.759 305.218 497.081C305.114 497.242 305.018 497.358 304.935 497.434C304.85 497.511 304.802 497.525 304.793 497.527L304.792 497.527C304.688 497.547 304.477 497.517 304.14 497.349C303.821 497.19 303.464 496.945 303.102 496.659C302.38 496.089 301.702 495.404 301.373 495.061C300.368 494.002 299.568 492.755 299.074 491.392L299.073 491.39C298.495 489.816 298.295 488.134 298.095 486.381C298.091 486.343 298.087 486.304 298.082 486.266C297.889 484.569 297.689 482.807 297.106 481.134L297.106 481.134C296.443 479.239 295.314 477.545 294.232 475.922C293.948 475.496 293.667 475.075 293.399 474.656C292.084 472.604 290.971 470.409 290.988 468.108C291.005 465.802 292.47 463.482 294.57 463.109L294.571 463.109C295.956 462.86 297.429 463.442 298.648 464.367L298.649 464.367C300.372 465.668 301.63 467.57 302.168 469.671C302.491 470.942 302.554 472.265 302.616 473.647L302.618 473.703C302.679 475.051 302.741 476.455 303.079 477.821C303.498 479.534 304.329 481.106 305.126 482.612C305.186 482.727 305.247 482.841 305.307 482.955C306.168 484.589 306.952 486.159 307.229 487.871Z" fill="#04D361" stroke="#04D361"/>
<path d="M305.57 525.448C304.95 517.075 302.798 507.615 298.121 500.648" stroke="#04D361" stroke-width="0.779" stroke-miterlimit="10"/>
<path d="M296.993 494.35L296.993 494.352C297.663 496.22 298.076 498.177 298.421 500.149L298.422 500.151C298.44 500.255 298.472 500.388 298.503 500.52C298.515 500.571 298.526 500.621 298.537 500.669C298.581 500.859 298.62 501.052 298.642 501.236C298.663 501.424 298.662 501.573 298.64 501.681C298.62 501.784 298.589 501.81 298.58 501.816L298.58 501.816C298.576 501.82 298.539 501.846 298.411 501.827C298.282 501.808 298.116 501.749 297.925 501.65C297.546 501.456 297.175 501.165 296.987 500.998C296.651 500.69 296.353 500.334 296.054 499.946C295.949 499.809 295.839 499.663 295.728 499.514C295.535 499.258 295.336 498.991 295.135 498.744L295.135 498.743C292.423 495.409 288.14 493.806 284.003 493.213C281.933 492.916 279.851 492.838 277.785 492.805C277.239 492.797 276.695 492.791 276.153 492.785C274.634 492.769 273.128 492.754 271.622 492.67L271.619 492.67C270.682 492.624 269.838 492.522 269.213 492.078C268.397 491.494 268.057 490.299 268.307 489.209C268.556 488.131 269.299 487.177 270.215 486.39L270.215 486.39C272.238 484.651 274.925 483.774 277.636 483.597C280.348 483.419 283.087 483.907 285.762 484.631L285.762 484.631C288.34 485.328 290.853 486.264 292.829 487.927C294.783 489.578 296.118 491.884 296.993 494.35ZM298.986 500.389C298.956 500.264 298.93 500.153 298.914 500.063L296.652 501.369C297.063 501.734 298.285 502.657 298.877 502.218C299.336 501.879 299.125 500.98 298.986 500.389Z" fill="#04D361" stroke="#04D361"/>
<path d="M305.397 526.343C305.033 519.038 301.75 511.915 296.443 506.893" stroke="#04D361" stroke-width="0.779" stroke-miterlimit="10"/>
<path d="M297.511 507.408C297.296 507.019 297.077 506.542 296.882 506.117C296.688 505.696 296.518 505.325 296.397 505.14M297.511 507.408L287.835 500.392C289.887 500.967 292.011 501.616 293.899 502.62L293.899 502.62C294.036 502.693 294.172 502.766 294.309 502.848C295.23 503.369 295.823 504.264 296.397 505.14M297.511 507.408C297.29 507.333 297.067 507.266 296.841 507.204M297.511 507.408L297.173 507.823M296.397 505.14L295.979 505.414M296.397 505.14L295.979 505.414C295.979 505.414 295.979 505.414 295.979 505.414M296.841 507.204C296.949 507.42 297.06 507.633 297.173 507.823M296.841 507.204C294.373 506.528 291.657 506.553 289.281 506.576L289.253 506.576M296.841 507.204C296.807 507.135 296.773 507.065 296.74 506.996C296.631 506.77 296.524 506.536 296.425 506.32C296.378 506.218 296.333 506.119 296.29 506.028C296.15 505.726 296.046 505.517 295.979 505.414M297.173 507.823C294.667 507.028 291.819 507.052 289.257 507.076C286.066 507.103 282.874 507.697 279.893 508.848C279.514 508.995 279.137 509.152 278.759 509.309C277.271 509.928 275.775 510.55 274.175 510.637C273.063 510.692 271.732 510.327 271.394 509.258L297.173 507.823ZM289.253 506.576L287.7 500.874C289.751 501.449 291.829 502.085 293.664 503.062L293.898 502.621L293.663 503.061C293.802 503.135 293.927 503.202 294.052 503.277L294.051 503.277L294.063 503.284C294.861 503.735 295.393 504.52 295.979 505.414M289.253 506.576C289.253 506.576 289.253 506.576 289.253 506.576L289.257 507.075L289.253 506.576ZM281.83 500.153C283.719 499.786 285.692 500.311 287.7 500.874L281.83 500.153ZM274.149 510.138C273.65 510.162 273.118 510.09 272.689 509.909C272.265 509.729 271.983 509.462 271.872 509.11C271.696 508.534 272 507.852 272.515 507.166L272.515 507.166L272.516 507.164C273.534 505.793 274.848 504.669 276.205 503.512C277.973 502.008 279.727 500.562 281.83 500.153L274.149 510.138Z" fill="#04D361" stroke="#04D361"/>
<path d="M527.581 496.672L527.582 496.671C529.089 495.17 529.766 493.087 530.381 491.192C530.468 490.925 530.553 490.661 530.639 490.404C531.36 488.259 532.383 486.159 534.203 485.28C536.312 484.266 538.757 485.246 540.846 486.592C541.084 486.746 541.326 486.906 541.572 487.068C542.383 487.603 543.236 488.165 544.116 488.615C545.277 489.207 546.54 489.634 547.937 489.585C549.044 489.545 550.11 489.204 551.102 488.88L551.175 488.856C552.162 488.534 553.079 488.235 554.009 488.168C556.62 487.992 558.888 489.665 561.055 491.418L561.055 491.419C562.627 492.687 564.11 493.953 564.598 495.728L564.598 495.728C565.189 497.872 564.098 500.45 562.234 502.005L562.233 502.006C560.378 503.563 557.912 504.21 555.513 504.263L555.512 504.263C555.223 504.27 554.92 504.272 554.608 504.273C553.754 504.277 552.836 504.281 551.978 504.401C550.785 504.568 549.605 504.968 548.707 505.962L548.706 505.962C547.83 506.932 547.529 508.152 547.309 509.294C547.274 509.476 547.24 509.655 547.208 509.832C547.028 510.806 546.862 511.706 546.453 512.507C545.479 514.399 543.19 515.421 541.046 515.412C538.907 515.403 536.891 514.594 534.821 513.763L534.765 513.741C532.706 512.914 530.458 512.047 528.056 512.153C525.835 512.249 523.704 513.177 521.696 514.051C521.307 514.221 520.923 514.388 520.544 514.547L520.543 514.547C519.507 514.983 518.075 515.571 516.712 515.797C515.327 516.025 514.21 515.851 513.576 515.016L513.574 515.014C513.294 514.649 513.143 514.139 513.113 513.497C513.083 512.857 513.176 512.127 513.343 511.367C513.668 509.894 514.255 508.391 514.662 507.345C514.675 507.312 514.688 507.278 514.701 507.246C515.788 504.472 517.597 501.89 520.101 500.458C520.987 499.952 521.942 499.593 522.935 499.22C523.248 499.103 523.565 498.984 523.884 498.858C525.19 498.346 526.511 497.733 527.581 496.672Z" fill="#04D361" stroke="#04D361"/>
<path d="M513.615 515.072C525.752 504.635 539.913 497.723 555.196 494.783" stroke="white" stroke-width="0.7047" stroke-miterlimit="10" stroke-linecap="round" stroke-linejoin="round"/>
<path d="M525.615 499.02C525.898 495.577 525.251 491.989 526.381 488.729C528.396 482.921 535.381 479.89 537.132 474C539.229 466.96 532.828 459.774 533.941 452.515C534.406 449.456 536.166 446.762 537.26 443.868C538.354 440.973 538.637 437.348 536.512 435.093C534.287 432.737 530.248 433.011 527.603 434.892C524.959 436.773 523.436 439.823 522.196 442.827C520.965 445.831 519.88 448.972 517.792 451.465C513.989 456.003 507.15 457.994 505.071 463.536C502.956 469.179 506.959 475.151 507.67 481.132C508.208 485.661 506.831 490.172 505.6 494.573C504.378 498.974 503.293 503.631 504.415 508.05C505.91 513.94 511.208 517.693 516.287 513.912C521.311 510.196 525.096 505.493 525.615 499.02Z" fill="#04D361"/>
<path d="M513.068 515.355C511.053 494.335 515.667 471.535 526.445 453.382" stroke="white" stroke-width="1.1364" stroke-miterlimit="10" stroke-linecap="round" stroke-linejoin="round"/>
<path d="M499.646 507.429C497.43 504.297 496.162 500.38 493.153 497.997C489.706 495.258 484.928 495.23 480.551 494.874C476.165 494.518 471.223 493.276 469.19 489.368C468.077 487.222 468.077 484.675 467.302 482.392C466.445 479.881 464.694 477.799 463.463 475.452C462.241 473.106 461.594 470.12 463.016 467.883C464.457 465.618 467.612 464.951 470.193 465.682C472.773 466.412 474.889 468.23 476.822 470.092C478.755 471.955 480.643 473.946 483.023 475.169C486.971 477.187 491.658 476.813 496.089 476.621C500.521 476.438 505.354 476.621 508.783 479.452C511.6 481.78 512.886 485.442 514.035 488.921C515.694 493.897 517.39 498.855 519.004 503.85C519.998 506.918 521.895 511.62 518.703 514.031C513.077 518.277 502.892 512.004 499.646 507.429Z" fill="#04D361"/>
<path d="M516.925 514.214C509.886 497.851 494.986 483.917 477.15 477.772" stroke="white" stroke-width="0.8174" stroke-miterlimit="10" stroke-linecap="round" stroke-linejoin="round"/>
<path d="M111.359 513.462C113.374 510.458 114.541 506.605 117.249 504.404C120.359 501.893 124.635 502.222 128.574 502.176C132.505 502.14 136.945 501.254 138.805 497.455C139.827 495.374 139.836 492.799 140.556 490.543C141.34 488.069 142.927 486.096 144.049 483.814C145.161 481.531 145.763 478.563 144.514 476.198C143.237 473.806 140.419 472.902 138.103 473.45C135.787 473.998 133.872 475.678 132.131 477.413C130.389 479.148 128.684 481.02 126.532 482.079C122.976 483.832 118.781 483.101 114.805 482.581C110.83 482.07 106.498 481.905 103.407 484.508C100.863 486.653 99.6868 490.26 98.6199 493.684C97.0971 498.588 95.5378 503.473 94.0515 508.394C93.1396 511.426 91.398 516.028 94.243 518.703C99.2308 523.433 108.413 517.845 111.359 513.462Z" fill="#04D361"/>
<path d="M95.8204 519.05C102.258 503.035 115.717 490.059 131.748 485.156" stroke="white" stroke-width="0.7781" stroke-miterlimit="10" stroke-linecap="round" stroke-linejoin="round"/>
<path d="M86.9937 505.053C86.7749 501.884 87.2855 498.588 86.3828 495.584C84.7688 490.242 79.17 487.457 77.7657 482.042C76.0879 475.568 81.2126 468.957 80.328 462.274C79.9542 459.461 78.5408 456.987 77.6654 454.32C76.79 451.654 76.5621 448.321 78.2672 446.249C80.0545 444.075 83.2825 444.331 85.4071 446.066C87.5226 447.801 88.7445 450.604 89.7384 453.362C90.7232 456.119 91.5986 459.014 93.2673 461.306C96.3129 465.479 101.793 467.305 103.453 472.409C105.149 477.605 101.939 483.092 101.374 488.598C100.945 492.771 102.048 496.917 103.033 500.962C104.018 505.007 104.884 509.289 103.982 513.362C102.787 518.777 98.5378 522.228 94.471 518.758C90.4497 515.334 87.4132 511.006 86.9937 505.053Z" fill="#04D361"/>
<path d="M97.0423 520.073C98.6563 500.743 94.9542 479.769 86.328 463.068" stroke="white" stroke-width="0.9754" stroke-miterlimit="10" stroke-linecap="round" stroke-linejoin="round"/>
<path d="M35.2001 489.594C34.4615 492.762 35.9934 496.588 38.4098 498.962C40.8263 501.345 43.963 502.45 46.9448 502.715L54.7503 505.29L55.1443 504.982C55.1442 504.982 55.1441 504.982 55.144 504.982C54.0833 503.624 52.6907 502.998 51.2498 502.679C50.2109 502.449 49.1019 502.371 48.0674 502.299C47.6964 502.274 47.3351 502.248 46.99 502.217L46.989 502.217C44.0938 501.96 41.076 500.889 38.7609 498.606L38.7602 498.605C36.4324 496.318 34.9983 492.662 35.687 489.707M35.2001 489.594L35.6869 489.708C35.6869 489.708 35.6869 489.708 35.687 489.707M35.2001 489.594L35.687 489.707C35.687 489.707 35.687 489.707 35.687 489.707M35.2001 489.594C35.811 486.991 37.7351 485.275 39.5679 483.713C42.112 481.54 44.9843 479.266 48.4038 479.75M35.687 489.707C36.2557 487.286 38.0473 485.666 39.8921 484.094L39.8926 484.093C42.4677 481.894 45.1705 479.798 48.3337 480.245L48.3345 480.246C49.4717 480.405 50.5983 480.886 51.8004 481.399C51.8258 481.41 51.8512 481.421 51.8766 481.432C53.0787 481.945 54.3604 482.485 55.6836 482.622M55.6836 482.622C57.3557 482.795 58.8621 482.318 60.2444 481.609C61.292 481.072 62.3029 480.382 63.2673 479.723C63.5615 479.523 63.8514 479.325 64.1367 479.135L64.1377 479.134C66.6181 477.475 69.5593 476.325 72.1757 477.879M55.6836 482.622L55.7351 482.125L55.6837 482.622C55.6836 482.622 55.6836 482.622 55.6836 482.622ZM48.4038 479.75L48.4038 479.75L48.4038 479.75ZM48.4038 479.75C49.608 479.919 50.7886 480.423 51.9675 480.927C53.2166 481.46 54.4638 481.993 55.7351 482.124C58.4512 482.406 60.7495 480.837 62.9669 479.323C63.2657 479.119 63.5631 478.916 63.8598 478.719C66.3583 477.048 69.5406 475.733 72.4312 477.449M72.4312 477.449L72.1749 477.879C72.1752 477.879 72.1754 477.879 72.1757 477.879M72.4312 477.449L72.1759 477.879C72.1759 477.879 72.1758 477.879 72.1757 477.879M72.4312 477.449C74.8932 478.919 76.2519 482.097 77.1638 485.056L80.47 493.811M72.1757 477.879C73.3057 478.554 74.207 479.636 74.9435 480.94C75.6795 482.243 76.2346 483.739 76.686 485.203L76.6864 485.204C76.7997 485.568 76.9115 485.939 77.0244 486.313C77.8118 488.923 78.6555 491.719 80.47 493.811M80.47 493.811C81.7582 495.303 83.3399 496.222 84.927 497.015C85.3151 497.209 85.701 497.394 86.0832 497.578C87.2876 498.156 88.4563 498.718 89.5443 499.473L89.5449 499.474C92.646 501.62 94.9129 505.293 96.2977 509.165C96.3159 509.216 96.3345 509.268 96.3534 509.321C96.8658 510.758 97.6074 512.839 98.036 514.867C98.258 515.918 98.3914 516.934 98.3705 517.825C98.3496 518.722 98.1733 519.441 97.8256 519.944L97.8244 519.946C97.0647 521.054 95.7107 521.2 94.0268 520.783C92.3665 520.372 90.6132 519.462 89.3529 518.792L89.3526 518.791C88.9004 518.551 88.442 518.301 87.9795 518.048C86.9795 517.501 85.9599 516.943 84.9404 516.461C83.4397 515.75 81.885 515.175 80.2748 514.993L80.2747 514.992C77.391 514.666 74.7013 515.658 72.2398 516.622L72.1666 516.65C69.6995 517.617 67.292 518.56 64.7029 518.396C62.1102 518.232 59.2549 516.675 57.9855 513.938L80.47 493.811ZM80.47 493.811L80.8477 493.484L80.4692 493.81C80.4695 493.811 80.4697 493.811 80.47 493.811ZM89.1182 519.233C88.6538 518.987 88.1889 518.732 87.723 518.478C85.2712 517.136 82.7931 515.781 80.2185 515.489C77.4738 515.179 74.8932 516.119 72.4221 517.087L72.3033 517.134C69.8697 518.087 67.3721 519.066 64.6713 518.895C61.9266 518.722 58.8902 517.078 57.5315 514.147L89.1182 519.233ZM89.1182 519.233C91.6258 520.566 96.3401 522.995 98.2368 520.228L89.1182 519.233Z" fill="#04D361" stroke="#04D361"/>
<path d="M97.6989 519.854C82.8265 504.824 65.5833 494.397 47.0908 489.247" stroke="white" stroke-width="0.8986" stroke-miterlimit="10" stroke-linecap="round" stroke-linejoin="round"/>
<path d="M523.847 247.597C523.847 250.491 521.504 252.838 518.613 252.838C515.723 252.838 513.379 250.491 513.379 247.597C513.379 244.702 515.723 242.355 518.613 242.355C521.495 242.355 523.847 244.702 523.847 247.597Z" stroke="#04D361" stroke-width="2" stroke-miterlimit="10" stroke-linecap="round" stroke-linejoin="round"/>
<path d="M522.397 251.213L526.09 254.919" stroke="#04D361" stroke-width="2" stroke-miterlimit="10" stroke-linecap="round" stroke-linejoin="round"/>
<path d="M319.068 177L324.575 182.514" stroke="#04D361" stroke-width="2" stroke-miterlimit="10" stroke-linecap="round" stroke-linejoin="round"/>
<path d="M324.575 177L319.068 182.514" stroke="#04D361" stroke-width="2" stroke-miterlimit="10" stroke-linecap="round" stroke-linejoin="round"/>
<path d="M397.995 494.459L403.501 499.974" stroke="#04D361" stroke-width="2" stroke-miterlimit="10" stroke-linecap="round" stroke-linejoin="round"/>
<path d="M403.501 494.459L397.995 499.974" stroke="#04D361" stroke-width="2" stroke-miterlimit="10" stroke-linecap="round" stroke-linejoin="round"/>
<path d="M48.5352 421.386V429.184" stroke="#04D361" stroke-width="2" stroke-miterlimit="10" stroke-linecap="round" stroke-linejoin="round"/>
<path d="M52.4387 425.284H44.6423" stroke="#04D361" stroke-width="2" stroke-miterlimit="10" stroke-linecap="round" stroke-linejoin="round"/>
<path d="M31.5993 361.515C31.5993 364.126 29.4838 366.254 26.8668 366.254C24.2588 366.254 22.1342 364.135 22.1342 361.515C22.1342 358.903 24.2497 356.776 26.8668 356.776C29.4838 356.785 31.5993 358.903 31.5993 361.515Z" stroke="#04D361" stroke-width="2" stroke-miterlimit="10" stroke-linecap="round" stroke-linejoin="round"/>
<path d="M228.027 476.134C228.027 478.746 225.911 480.873 223.294 480.873C220.687 480.873 218.562 478.755 218.562 476.134C218.562 473.523 220.677 471.395 223.294 471.395C225.911 471.404 228.027 473.523 228.027 476.134Z" stroke="#04D361" stroke-width="2" stroke-miterlimit="10" stroke-linecap="round" stroke-linejoin="round"/>
<path d="M540.339 390.786C540.339 393.398 538.224 395.525 535.607 395.525C532.999 395.525 530.874 393.407 530.874 390.786C530.874 388.175 532.99 386.047 535.607 386.047C538.224 386.056 540.339 388.175 540.339 390.786Z" stroke="#04D361" stroke-width="2" stroke-miterlimit="10" stroke-linecap="round" stroke-linejoin="round"/>
<path d="M2.928 278.464C2.928 279.137 2.38383 279.68 1.714 279.68C1.04417 279.68 0.5 279.137 0.5 278.464C0.5 277.792 1.04417 277.248 1.714 277.248C2.38383 277.248 2.928 277.792 2.928 278.464Z" fill="#9871F5" stroke="#9871F5"/>
<path d="M14.9007 278.464C14.9007 279.137 14.3566 279.68 13.6867 279.68C13.0169 279.68 12.4727 279.137 12.4727 278.464C12.4727 277.792 13.0169 277.248 13.6867 277.248C14.3566 277.248 14.9007 277.792 14.9007 278.464Z" fill="#9871F5" stroke="#9871F5"/>
<path d="M26.8644 278.464C26.8644 279.137 26.3202 279.68 25.6504 279.68C24.9806 279.68 24.4364 279.137 24.4364 278.464C24.4364 277.792 24.9806 277.248 25.6504 277.248C26.3202 277.248 26.8644 277.792 26.8644 278.464Z" fill="#9871F5" stroke="#9871F5"/>
<path d="M38.8371 278.464C38.8371 279.137 38.2929 279.68 37.6231 279.68C36.9533 279.68 36.4091 279.137 36.4091 278.464C36.4091 277.792 36.9533 277.248 37.6231 277.248C38.2929 277.248 38.8371 277.792 38.8371 278.464Z" fill="#9871F5" stroke="#9871F5"/>
<path d="M50.8006 278.464C50.8006 279.137 50.2564 279.68 49.5866 279.68C48.9168 279.68 48.3726 279.137 48.3726 278.464C48.3726 277.792 48.9168 277.248 49.5866 277.248C50.2564 277.248 50.8006 277.792 50.8006 278.464Z" fill="#9871F5" stroke="#9871F5"/>
<path d="M62.7732 278.464C62.7732 279.137 62.2291 279.68 61.5592 279.68C60.8894 279.68 60.3452 279.137 60.3452 278.464C60.3452 277.792 60.8894 277.248 61.5592 277.248C62.2291 277.248 62.7732 277.792 62.7732 278.464Z" fill="#9871F5" stroke="#9871F5"/>
<path d="M2.928 290.444C2.928 291.117 2.38383 291.66 1.714 291.66C1.04417 291.66 0.5 291.117 0.5 290.444C0.5 289.772 1.04417 289.228 1.714 289.228C2.38383 289.228 2.928 289.772 2.928 290.444Z" fill="#9871F5" stroke="#9871F5"/>
<path d="M14.9008 290.444C14.9008 291.117 14.3566 291.66 13.6868 291.66C13.0169 291.66 12.4728 291.117 12.4728 290.444C12.4728 289.772 13.0169 289.228 13.6868 289.228C14.3566 289.228 14.9008 289.772 14.9008 290.444Z" fill="#9871F5" stroke="#9871F5"/>
<path d="M26.8644 290.444C26.8644 291.117 26.3202 291.66 25.6504 291.66C24.9806 291.66 24.4364 291.117 24.4364 290.444C24.4364 289.772 24.9806 289.228 25.6504 289.228C26.3202 289.228 26.8644 289.772 26.8644 290.444Z" fill="#9871F5" stroke="#9871F5"/>
<path d="M38.8371 290.444C38.8371 291.117 38.2929 291.66 37.6231 291.66C36.9532 291.66 36.4091 291.117 36.4091 290.444C36.4091 289.772 36.9532 289.228 37.6231 289.228C38.2929 289.228 38.8371 289.772 38.8371 290.444Z" fill="#9871F5" stroke="#9871F5"/>
<path d="M50.8006 290.444C50.8006 291.117 50.2564 291.66 49.5866 291.66C48.9168 291.66 48.3726 291.117 48.3726 290.444C48.3726 289.772 48.9168 289.228 49.5866 289.228C50.2564 289.228 50.8006 289.772 50.8006 290.444Z" fill="#9871F5" stroke="#9871F5"/>
<path d="M62.7732 290.444C62.7732 291.117 62.229 291.66 61.5592 291.66C60.8894 291.66 60.3452 291.117 60.3452 290.444C60.3452 289.772 60.8894 289.228 61.5592 289.228C62.229 289.228 62.7732 289.772 62.7732 290.444Z" fill="#9871F5" stroke="#9871F5"/>
<path d="M2.928 302.433C2.928 303.106 2.38383 303.65 1.714 303.65C1.04417 303.65 0.5 303.106 0.5 302.433C0.5 301.761 1.04417 301.217 1.714 301.217C2.38383 301.217 2.928 301.761 2.928 302.433Z" fill="#9871F5" stroke="#9871F5"/>
<path d="M14.9008 302.433C14.9008 303.106 14.3566 303.65 13.6868 303.65C13.0169 303.65 12.4728 303.106 12.4728 302.433C12.4728 301.761 13.017 301.217 13.6868 301.217C14.3566 301.217 14.9008 301.761 14.9008 302.433Z" fill="#9871F5" stroke="#9871F5"/>
<path d="M26.8644 302.433C26.8644 303.106 26.3202 303.65 25.6504 303.65C24.9806 303.65 24.4364 303.106 24.4364 302.433C24.4364 301.761 24.9806 301.217 25.6504 301.217C26.3202 301.217 26.8644 301.761 26.8644 302.433Z" fill="#9871F5" stroke="#9871F5"/>
<path d="M38.8371 302.433C38.8371 303.106 38.2929 303.65 37.6231 303.65C36.9532 303.65 36.4091 303.106 36.4091 302.433C36.4091 301.761 36.9532 301.217 37.6231 301.217C38.2929 301.217 38.8371 301.761 38.8371 302.433Z" fill="#9871F5" stroke="#9871F5"/>
<path d="M50.8006 302.433C50.8006 303.106 50.2564 303.65 49.5866 303.65C48.9168 303.65 48.3726 303.106 48.3726 302.433C48.3726 301.761 48.9168 301.217 49.5866 301.217C50.2564 301.217 50.8006 301.761 50.8006 302.433Z" fill="#9871F5" stroke="#9871F5"/>
<path d="M62.7732 302.433C62.7732 303.106 62.229 303.65 61.5592 303.65C60.8894 303.65 60.3452 303.106 60.3452 302.433C60.3452 301.761 60.8894 301.217 61.5592 301.217C62.229 301.217 62.7732 301.761 62.7732 302.433Z" fill="#9871F5" stroke="#9871F5"/>
<path d="M2.928 314.413C2.928 315.086 2.38383 315.63 1.714 315.63C1.04417 315.63 0.5 315.086 0.5 314.413C0.5 313.741 1.04417 313.197 1.714 313.197C2.38383 313.197 2.928 313.741 2.928 314.413Z" fill="#9871F5" stroke="#9871F5"/>
<path d="M14.9008 314.413C14.9008 315.086 14.3566 315.63 13.6868 315.63C13.017 315.63 12.4728 315.086 12.4728 314.413C12.4728 313.741 13.017 313.197 13.6868 313.197C14.3566 313.197 14.9008 313.741 14.9008 314.413Z" fill="#9871F5" stroke="#9871F5"/>
<path d="M26.8644 314.413C26.8644 315.086 26.3202 315.63 25.6504 315.63C24.9806 315.63 24.4364 315.086 24.4364 314.413C24.4364 313.741 24.9806 313.197 25.6504 313.197C26.3202 313.197 26.8644 313.741 26.8644 314.413Z" fill="#9871F5" stroke="#9871F5"/>
<path d="M38.8371 314.413C38.8371 315.086 38.2929 315.63 37.6231 315.63C36.9532 315.63 36.4091 315.086 36.4091 314.413C36.4091 313.741 36.9532 313.197 37.6231 313.197C38.2929 313.197 38.8371 313.741 38.8371 314.413Z" fill="#9871F5" stroke="#9871F5"/>
<path d="M50.8006 314.413C50.8006 315.086 50.2564 315.63 49.5866 315.63C48.9168 315.63 48.3726 315.086 48.3726 314.413C48.3726 313.741 48.9168 313.197 49.5866 313.197C50.2564 313.197 50.8006 313.741 50.8006 314.413Z" fill="#9871F5" stroke="#9871F5"/>
<path d="M62.7732 314.413C62.7732 315.086 62.229 315.63 61.5592 315.63C60.8894 315.63 60.3452 315.086 60.3452 314.413C60.3452 313.741 60.8894 313.197 61.5592 313.197C62.229 313.197 62.7732 313.741 62.7732 314.413Z" fill="#9871F5" stroke="#9871F5"/>
<path d="M187.624 504.189C187.624 504.862 187.08 505.406 186.41 505.406C185.74 505.406 185.196 504.862 185.196 504.189C185.196 503.517 185.74 502.973 186.41 502.973C187.08 502.973 187.624 503.517 187.624 504.189Z" fill="#9871F5" stroke="#9871F5"/>
<path d="M199.596 504.189C199.596 504.862 199.052 505.406 198.382 505.406C197.713 505.406 197.168 504.862 197.168 504.189C197.168 503.517 197.713 502.973 198.382 502.973C199.052 502.973 199.596 503.517 199.596 504.189Z" fill="#9871F5" stroke="#9871F5"/>
<path d="M211.56 504.189C211.56 504.862 211.016 505.406 210.346 505.406C209.676 505.406 209.132 504.862 209.132 504.189C209.132 503.517 209.676 502.973 210.346 502.973C211.016 502.973 211.56 503.517 211.56 504.189Z" fill="#9871F5" stroke="#9871F5"/>
<path d="M223.533 504.189C223.533 504.862 222.988 505.406 222.319 505.406C221.649 505.406 221.105 504.862 221.105 504.189C221.105 503.517 221.649 502.973 222.319 502.973C222.988 502.973 223.533 503.517 223.533 504.189Z" fill="#9871F5" stroke="#9871F5"/>
<path d="M235.496 504.189C235.496 504.862 234.952 505.406 234.282 505.406C233.612 505.406 233.068 504.862 233.068 504.189C233.068 503.517 233.612 502.973 234.282 502.973C234.952 502.973 235.496 503.517 235.496 504.189Z" fill="#9871F5" stroke="#9871F5"/>
<path d="M187.624 516.178C187.624 516.851 187.08 517.395 186.41 517.395C185.74 517.395 185.196 516.851 185.196 516.178C185.196 515.506 185.74 514.962 186.41 514.962C187.08 514.962 187.624 515.506 187.624 516.178Z" fill="#9871F5" stroke="#9871F5"/>
<path d="M199.596 516.178C199.596 516.851 199.052 517.395 198.382 517.395C197.713 517.395 197.168 516.851 197.168 516.178C197.168 515.506 197.713 514.962 198.382 514.962C199.052 514.962 199.596 515.506 199.596 516.178Z" fill="#9871F5" stroke="#9871F5"/>
<path d="M211.56 516.178C211.56 516.851 211.016 517.395 210.346 517.395C209.676 517.395 209.132 516.851 209.132 516.178C209.132 515.506 209.676 514.962 210.346 514.962C211.016 514.962 211.56 515.506 211.56 516.178Z" fill="#9871F5" stroke="#9871F5"/>
<path d="M223.533 516.178C223.533 516.851 222.988 517.395 222.319 517.395C221.649 517.395 221.105 516.851 221.105 516.178C221.105 515.506 221.649 514.962 222.319 514.962C222.988 514.962 223.533 515.506 223.533 516.178Z" fill="#9871F5" stroke="#9871F5"/>
<path d="M235.496 516.178C235.496 516.851 234.952 517.395 234.282 517.395C233.612 517.395 233.068 516.851 233.068 516.178C233.068 515.506 233.612 514.962 234.282 514.962C234.952 514.962 235.496 515.506 235.496 516.178Z" fill="#9871F5" stroke="#9871F5"/>
<path d="M490.93 204.398C490.93 205.07 490.386 205.614 489.716 205.614C489.046 205.614 488.502 205.07 488.502 204.398C488.502 203.725 489.046 203.181 489.716 203.181C490.386 203.181 490.93 203.725 490.93 204.398Z" fill="#9871F5" stroke="#9871F5"/>
<path d="M502.894 204.398C502.894 205.07 502.35 205.614 501.68 205.614C501.01 205.614 500.466 205.07 500.466 204.398C500.466 203.725 501.01 203.181 501.68 203.181C502.35 203.181 502.894 203.725 502.894 204.398Z" fill="#9871F5" stroke="#9871F5"/>
<path d="M514.866 204.398C514.866 205.07 514.322 205.614 513.653 205.614C512.983 205.614 512.439 205.07 512.439 204.398C512.439 203.725 512.983 203.181 513.653 203.181C514.322 203.181 514.866 203.725 514.866 204.398Z" fill="#9871F5" stroke="#9871F5"/>
<path d="M490.93 216.387C490.93 217.059 490.386 217.603 489.716 217.603C489.046 217.603 488.502 217.059 488.502 216.387C488.502 215.714 489.046 215.17 489.716 215.17C490.386 215.17 490.93 215.714 490.93 216.387Z" fill="#9871F5" stroke="#9871F5"/>
<path d="M502.894 216.387C502.894 217.059 502.35 217.603 501.68 217.603C501.01 217.603 500.466 217.059 500.466 216.387C500.466 215.714 501.01 215.17 501.68 215.17C502.35 215.17 502.894 215.714 502.894 216.387Z" fill="#9871F5" stroke="#9871F5"/>
<path d="M514.866 216.387C514.866 217.059 514.322 217.603 513.652 217.603C512.983 217.603 512.438 217.059 512.438 216.387C512.438 215.714 512.983 215.17 513.652 215.17C514.322 215.17 514.866 215.714 514.866 216.387Z" fill="#9871F5" stroke="#9871F5"/>
<path d="M177.582 181.716C177.582 182.389 177.038 182.933 176.368 182.933C175.698 182.933 175.154 182.389 175.154 181.716C175.154 181.044 175.698 180.5 176.368 180.5C177.038 180.5 177.582 181.044 177.582 181.716Z" fill="#9871F5" stroke="#9871F5"/>
<path d="M189.546 181.716C189.546 182.389 189.002 182.933 188.332 182.933C187.662 182.933 187.118 182.389 187.118 181.716C187.118 181.044 187.662 180.5 188.332 180.5C189.002 180.5 189.546 181.044 189.546 181.716Z" fill="#9871F5" stroke="#9871F5"/>
<path d="M201.518 181.716C201.518 182.389 200.974 182.933 200.304 182.933C199.635 182.933 199.09 182.389 199.09 181.716C199.09 181.044 199.635 180.5 200.304 180.5C200.974 180.5 201.518 181.044 201.518 181.716Z" fill="#9871F5" stroke="#9871F5"/>
<path d="M177.582 193.705C177.582 194.378 177.038 194.922 176.368 194.922C175.698 194.922 175.154 194.378 175.154 193.705C175.154 193.033 175.698 192.489 176.368 192.489C177.038 192.489 177.582 193.033 177.582 193.705Z" fill="#9871F5" stroke="#9871F5"/>
<path d="M189.546 193.705C189.546 194.378 189.001 194.922 188.332 194.922C187.662 194.922 187.118 194.378 187.118 193.705C187.118 193.033 187.662 192.489 188.332 192.489C189.002 192.489 189.546 193.033 189.546 193.705Z" fill="#9871F5" stroke="#9871F5"/>
<path d="M201.518 193.705C201.518 194.378 200.974 194.922 200.304 194.922C199.635 194.922 199.09 194.378 199.09 193.705C199.09 193.033 199.635 192.489 200.304 192.489C200.974 192.489 201.518 193.033 201.518 193.705Z" fill="#9871F5" stroke="#9871F5"/>
<path d="M598.5 366.4C598.5 367.072 597.956 367.616 597.286 367.616C596.616 367.616 596.072 367.072 596.072 366.4C596.072 365.728 596.616 365.184 597.286 365.184C597.956 365.184 598.5 365.728 598.5 366.4Z" fill="#9871F5" stroke="#9871F5"/>
<path d="M598.5 378.389C598.5 379.061 597.956 379.605 597.286 379.605C596.616 379.605 596.072 379.061 596.072 378.389C596.072 377.717 596.616 377.173 597.286 377.173C597.956 377.173 598.5 377.717 598.5 378.389Z" fill="#9871F5" stroke="#9871F5"/>
<path d="M598.5 390.369C598.5 391.041 597.956 391.585 597.286 391.585C596.616 391.585 596.072 391.041 596.072 390.369C596.072 389.697 596.616 389.153 597.286 389.153C597.956 389.153 598.5 389.697 598.5 390.369Z" fill="#9871F5" stroke="#9871F5"/>
<path d="M598.5 402.358C598.5 403.031 597.956 403.574 597.286 403.574C596.616 403.574 596.072 403.031 596.072 402.358C596.072 401.686 596.616 401.142 597.286 401.142C597.956 401.142 598.5 401.686 598.5 402.358Z" fill="#9871F5" stroke="#9871F5"/>
<path d="M598.5 414.338C598.5 415.011 597.956 415.554 597.286 415.554C596.616 415.554 596.072 415.011 596.072 414.338C596.072 413.666 596.616 413.122 597.286 413.122C597.956 413.122 598.5 413.666 598.5 414.338Z" fill="#9871F5" stroke="#9871F5"/>
<path d="M598.5 426.327C598.5 427 597.956 427.544 597.286 427.544C596.616 427.544 596.072 427 596.072 426.327C596.072 425.655 596.616 425.111 597.286 425.111C597.956 425.111 598.5 425.655 598.5 426.327Z" fill="#9871F5" stroke="#9871F5"/>
<path d="M598.5 438.307C598.5 438.98 597.956 439.523 597.286 439.523C596.616 439.523 596.072 438.98 596.072 438.307C596.072 437.635 596.616 437.091 597.286 437.091C597.956 437.091 598.5 437.635 598.5 438.307Z" fill="#9871F5" stroke="#9871F5"/>
<path d="M586.527 366.4C586.527 367.072 585.983 367.616 585.313 367.616C584.643 367.616 584.099 367.072 584.099 366.4C584.099 365.728 584.643 365.184 585.313 365.184C585.983 365.184 586.527 365.728 586.527 366.4Z" fill="#9871F5" stroke="#9871F5"/>
<path d="M586.527 378.389C586.527 379.061 585.983 379.605 585.313 379.605C584.643 379.605 584.099 379.061 584.099 378.389C584.099 377.717 584.643 377.173 585.313 377.173C585.983 377.173 586.527 377.717 586.527 378.389Z" fill="#9871F5" stroke="#9871F5"/>
<path d="M586.527 390.369C586.527 391.041 585.983 391.585 585.313 391.585C584.643 391.585 584.099 391.041 584.099 390.369C584.099 389.697 584.643 389.153 585.313 389.153C585.983 389.153 586.527 389.697 586.527 390.369Z" fill="#9871F5" stroke="#9871F5"/>
<path d="M586.527 402.358C586.527 403.031 585.983 403.574 585.313 403.574C584.643 403.574 584.099 403.031 584.099 402.358C584.099 401.686 584.643 401.142 585.313 401.142C585.983 401.142 586.527 401.686 586.527 402.358Z" fill="#9871F5" stroke="#9871F5"/>
<path d="M586.527 414.338C586.527 415.011 585.983 415.554 585.313 415.554C584.643 415.554 584.099 415.011 584.099 414.338C584.099 413.666 584.643 413.122 585.313 413.122C585.983 413.122 586.527 413.666 586.527 414.338Z" fill="#9871F5" stroke="#9871F5"/>
<path d="M586.527 426.327C586.527 427 585.983 427.544 585.313 427.544C584.643 427.544 584.099 427 584.099 426.327C584.099 425.655 584.643 425.111 585.313 425.111C585.983 425.111 586.527 425.655 586.527 426.327Z" fill="#9871F5" stroke="#9871F5"/>
<path d="M586.527 438.307C586.527 438.98 585.983 439.523 585.313 439.523C584.643 439.523 584.099 438.98 584.099 438.307C584.099 437.635 584.643 437.091 585.313 437.091C585.983 437.091 586.527 437.635 586.527 438.307Z" fill="#9871F5" stroke="#9871F5"/>
<path d="M574.564 366.4C574.564 367.072 574.02 367.616 573.35 367.616C572.68 367.616 572.136 367.072 572.136 366.4C572.136 365.728 572.68 365.184 573.35 365.184C574.02 365.184 574.564 365.728 574.564 366.4Z" fill="#9871F5" stroke="#9871F5"/>
<path d="M574.564 378.389C574.564 379.061 574.02 379.605 573.35 379.605C572.68 379.605 572.136 379.061 572.136 378.389C572.136 377.717 572.68 377.173 573.35 377.173C574.02 377.173 574.564 377.717 574.564 378.389Z" fill="#9871F5" stroke="#9871F5"/>
<path d="M574.564 390.369C574.564 391.041 574.02 391.585 573.35 391.585C572.68 391.585 572.136 391.041 572.136 390.369C572.136 389.697 572.68 389.153 573.35 389.153C574.02 389.153 574.564 389.697 574.564 390.369Z" fill="#9871F5" stroke="#9871F5"/>
<path d="M574.564 402.358C574.564 403.031 574.02 403.574 573.35 403.574C572.68 403.574 572.136 403.031 572.136 402.358C572.136 401.686 572.68 401.142 573.35 401.142C574.02 401.142 574.564 401.686 574.564 402.358Z" fill="#9871F5" stroke="#9871F5"/>
<path d="M574.564 414.338C574.564 415.011 574.02 415.554 573.35 415.554C572.68 415.554 572.136 415.011 572.136 414.338C572.136 413.666 572.68 413.122 573.35 413.122C574.02 413.122 574.564 413.666 574.564 414.338Z" fill="#9871F5" stroke="#9871F5"/>
<path d="M574.564 426.327C574.564 427 574.02 427.544 573.35 427.544C572.68 427.544 572.136 427 572.136 426.327C572.136 425.655 572.68 425.111 573.35 425.111C574.02 425.111 574.564 425.655 574.564 426.327Z" fill="#9871F5" stroke="#9871F5"/>
<path d="M574.564 438.307C574.564 438.98 574.02 439.523 573.35 439.523C572.68 439.523 572.136 438.98 572.136 438.307C572.136 437.635 572.68 437.091 573.35 437.091C574.02 437.091 574.564 437.635 574.564 438.307Z" fill="#9871F5" stroke="#9871F5"/>
<path d="M562.591 366.4C562.591 367.072 562.047 367.616 561.377 367.616C560.707 367.616 560.163 367.072 560.163 366.4C560.163 365.728 560.707 365.184 561.377 365.184C562.047 365.184 562.591 365.728 562.591 366.4Z" fill="#9871F5" stroke="#9871F5"/>
<path d="M562.591 378.389C562.591 379.062 562.047 379.605 561.377 379.605C560.707 379.605 560.163 379.062 560.163 378.389C560.163 377.717 560.707 377.173 561.377 377.173C562.047 377.173 562.591 377.717 562.591 378.389Z" fill="#9871F5" stroke="#9871F5"/>
<path d="M562.591 390.369C562.591 391.041 562.047 391.585 561.377 391.585C560.707 391.585 560.163 391.041 560.163 390.369C560.163 389.697 560.707 389.153 561.377 389.153C562.047 389.153 562.591 389.697 562.591 390.369Z" fill="#9871F5" stroke="#9871F5"/>
<path d="M562.591 402.358C562.591 403.031 562.047 403.574 561.377 403.574C560.707 403.574 560.163 403.031 560.163 402.358C560.163 401.686 560.707 401.142 561.377 401.142C562.047 401.142 562.591 401.686 562.591 402.358Z" fill="#9871F5" stroke="#9871F5"/>
<path d="M562.591 414.338C562.591 415.011 562.047 415.554 561.377 415.554C560.707 415.554 560.163 415.011 560.163 414.338C560.163 413.666 560.707 413.122 561.377 413.122C562.047 413.122 562.591 413.666 562.591 414.338Z" fill="#9871F5" stroke="#9871F5"/>
<path d="M562.591 426.327C562.591 427 562.047 427.544 561.377 427.544C560.707 427.544 560.163 427 560.163 426.327C560.163 425.655 560.707 425.111 561.377 425.111C562.047 425.111 562.591 425.655 562.591 426.327Z" fill="#9871F5" stroke="#9871F5"/>
<path d="M562.591 438.307C562.591 438.98 562.047 439.523 561.377 439.523C560.707 439.523 560.163 438.98 560.163 438.307C560.163 437.635 560.707 437.091 561.377 437.091C562.047 437.091 562.591 437.635 562.591 438.307Z" fill="#9871F5" stroke="#9871F5"/>
<path d="M459.05 437.842H148.287C142.676 437.842 138.118 433.248 138.118 427.574V236.031C138.118 230.357 142.676 225.762 148.287 225.762H459.059C464.669 225.762 469.228 230.357 469.228 236.031V427.573C469.219 433.248 464.66 437.842 459.05 437.842Z" fill="#04D361" stroke="#04D361"/>
<path d="M458.6 429.268H148.733C143.927 429.268 140.025 425.36 140.025 420.548V236.073C140.025 231.261 143.927 227.353 148.733 227.353H458.6C463.406 227.353 467.308 231.261 467.308 236.073V420.548C467.308 425.369 463.406 429.268 458.6 429.268Z" fill="white"/>
<path d="M356.692 244.611V374.765C356.692 378.691 353.518 381.869 349.597 381.869H153.894C152.135 381.869 150.521 381.23 149.28 380.162C147.767 378.856 146.8 376.929 146.8 374.765V244.611C146.8 240.684 149.983 237.507 153.894 237.507H349.597C351.357 237.507 352.98 238.146 354.211 239.214C355.734 240.52 356.692 242.447 356.692 244.611Z" fill="#E6E6F0"/>
<path d="M453.5 293.142H372.491C368.57 293.142 365.396 289.965 365.396 286.038V244.611C365.396 240.684 368.57 237.507 372.491 237.507H453.5C457.421 237.507 460.594 240.684 460.594 244.611V286.038C460.594 289.965 457.412 293.142 453.5 293.142Z" fill="#E6E6F0"/>
<path d="M453.5 358.636H372.491C368.57 358.636 365.396 355.458 365.396 351.532V310.104C365.396 306.178 368.57 303 372.491 303H453.5C457.421 303 460.594 306.178 460.594 310.104V351.532C460.594 355.458 457.412 358.636 453.5 358.636Z" fill="#E6E6F0"/>
<path d="M453.5 420.691H372.491C368.57 420.691 365.396 417.513 365.396 413.587V376.104C365.396 372.178 368.57 369 372.491 369H453.5C457.421 369 460.594 372.178 460.594 376.104V413.587C460.594 417.513 457.412 420.691 453.5 420.691Z" fill="#E6E6F0"/>
<path d="M253.825 395.84H149.381C147.958 395.84 146.809 394.689 146.809 393.265C146.809 391.84 147.958 390.69 149.381 390.69H253.825C255.247 390.69 256.396 391.84 256.396 393.265C256.396 394.68 255.247 395.84 253.825 395.84Z" fill="#E6E6F0"/>
<path d="M259.853 420H149.485C147.981 420 146.767 418.884 146.767 417.502V407.499C146.767 406.116 147.981 405 149.485 405H259.853C261.357 405 262.571 406.116 262.571 407.499V417.502C262.571 418.884 261.357 420 259.853 420Z" fill="#E6E6F0"/>
<path d="M331.15 395.84H354.12C355.543 395.84 356.692 394.689 356.692 393.265C356.692 391.84 355.543 390.69 354.12 390.69H331.15C329.728 390.69 328.579 391.84 328.579 393.265C328.579 394.68 329.728 395.84 331.15 395.84Z" fill="#E6E6F0"/>
<path d="M292.187 395.84H315.156C316.579 395.84 317.728 394.689 317.728 393.265C317.728 391.84 316.579 390.69 315.156 390.69H292.187C290.764 390.69 289.615 391.84 289.615 393.265C289.606 394.68 290.764 395.84 292.187 395.84Z" fill="#E6E6F0"/>
<path d="M308.564 420.11H354.12C355.543 420.11 356.692 418.959 356.692 417.535V407.226C356.692 405.801 355.543 404.651 354.12 404.651H308.564C307.141 404.651 305.992 405.801 305.992 407.226V417.535C305.992 418.959 307.141 420.11 308.564 420.11Z" fill="#E6E6F0"/>
<g opacity="0.24">
<path d="M412.702 280.14C420.634 280.14 427.064 273.701 427.064 265.758C427.064 257.816 420.634 251.377 412.702 251.377C404.77 251.377 398.34 257.816 398.34 265.758C398.34 273.701 404.77 280.14 412.702 280.14Z" fill="#E6E6F0" stroke="#6842C2" stroke-width="2" stroke-miterlimit="10"/>
<path d="M418.587 264.34L410.389 259.601C409.487 259.081 408.365 259.729 408.365 260.77V270.248C408.365 271.289 409.487 271.937 410.389 271.417L418.587 266.678C419.49 266.157 419.49 264.861 418.587 264.34Z" fill="#E6E6F0" stroke="#6842C2" stroke-width="2" stroke-miterlimit="10"/>
</g>
<g opacity="0.24">
<path d="M412.702 344.763C420.634 344.763 427.064 338.324 427.064 330.381C427.064 322.439 420.634 316 412.702 316C404.77 316 398.34 322.439 398.34 330.381C398.34 338.324 404.77 344.763 412.702 344.763Z" fill="#E6E6F0" stroke="#6842C2" stroke-width="2" stroke-miterlimit="10"/>
<path d="M418.587 328.963L410.389 324.224C409.487 323.704 408.365 324.352 408.365 325.393V334.871C408.365 335.912 409.487 336.56 410.389 336.04L418.587 331.301C419.49 330.78 419.49 329.484 418.587 328.963Z" fill="#E6E6F0" stroke="#6842C2" stroke-width="2" stroke-miterlimit="10"/>
</g>
<g opacity="0.24">
<path d="M412.702 408.763C420.634 408.763 427.064 402.324 427.064 394.381C427.064 386.439 420.634 380 412.702 380C404.77 380 398.34 386.439 398.34 394.381C398.34 402.324 404.77 408.763 412.702 408.763Z" fill="#E6E6F0" stroke="#6842C2" stroke-width="2" stroke-miterlimit="10"/>
<path d="M418.587 392.963L410.389 388.224C409.487 387.704 408.365 388.352 408.365 389.393V398.871C408.365 399.912 409.487 400.56 410.389 400.04L418.587 395.301C419.49 394.78 419.49 393.484 418.587 392.963Z" fill="#E6E6F0" stroke="#6842C2" stroke-width="2" stroke-miterlimit="10"/>
</g>
<path d="M354.211 239.214L149.28 380.161C147.767 378.856 146.8 376.929 146.8 374.765V244.611C146.8 240.684 149.983 237.507 153.894 237.507H349.597C351.357 237.507 352.98 238.146 354.211 239.214Z" fill="#F2F2FA"/>
<mask id="mask0" mask-type="alpha" maskUnits="userSpaceOnUse" x="147" y="208" width="210" height="175">
<path d="M356.947 216.819V373.587C356.947 378.316 353.78 382.144 349.866 382.144H154.512C152.755 382.144 151.144 381.374 149.906 380.087C148.395 378.514 147.43 376.194 147.43 373.587V216.819C147.43 212.09 150.607 208.262 154.512 208.262H349.866C351.623 208.262 353.243 209.032 354.472 210.319C355.992 211.892 356.947 214.212 356.947 216.819Z" fill="#A3D1DE"/>
</mask>
<g mask="url(#mask0)">
<path d="M340.442 318.967C340.442 318.967 352.141 309.718 352.451 307.07C353.035 302.084 354.822 298.176 365.527 294.871C365.527 294.871 366.357 296.459 364.871 298.185C363.248 300.057 361.962 300.714 361.962 300.714C361.962 300.714 364.798 301.801 369.02 298.496C373.242 295.199 375.02 292.332 376.798 293.035C376.798 293.035 378.895 291.136 379.889 291.437C379.889 291.437 380.619 291.656 380.482 292.442C382.132 292.186 381.795 296.952 378.859 300.824C374.637 306.394 369.366 311.188 365.053 312.767C361.816 313.955 348.439 327.587 348.439 327.587L340.442 318.967Z" fill="#FFCAD0"/>
<path d="M304.314 366.157C299.208 367.883 270.877 324.254 270.877 324.254C259.925 311.635 269.755 270.071 279.667 284.644C279.667 284.644 305.445 331.34 308.226 335.102C311.682 339.777 323.181 359.774 304.314 366.157Z" fill="#04D361"/>
<path d="M272.39 409.465H197.691C197.691 409.465 191.955 406.936 196.943 395.906C198.812 391.788 198.001 381.177 197.691 366.613C197.062 337.814 188.527 290.013 199.059 284.534C205.369 281.238 218.773 276.901 228.502 273.933C229.086 273.769 229.651 273.595 230.208 273.431C235.889 271.732 239.946 270.609 239.946 270.609C239.946 270.609 244.651 271.294 254.208 274.125C254.728 274.28 255.265 274.444 255.822 274.609C258.311 275.367 261.083 276.252 264.165 277.302C280.87 282.991 278.992 280.964 281.208 301.856C282.977 318.538 272.39 409.465 272.39 409.465Z" fill="#04D361"/>
<path d="M255.822 274.6C255.603 278.142 254.016 281.274 251.6 283.566C249.147 285.913 245.819 287.337 242.189 287.337C234.703 287.337 228.648 281.338 228.493 273.933C229.077 273.769 229.642 273.595 230.199 273.431C235.879 271.732 239.937 270.609 239.937 270.609C239.937 270.609 244.642 271.294 254.199 274.125C254.718 274.271 255.265 274.435 255.822 274.6Z" fill="#F2F2FA"/>
<path d="M254.181 244.695L253.004 267.45L252.667 273.942C252.53 276.7 251.317 279.156 249.439 280.927C247.579 282.699 245.062 283.776 242.308 283.776C236.481 283.776 231.785 278.964 231.94 273.139L232.232 261.551L232.724 242.303L254.181 244.695Z" fill="#FBD5D9"/>
<path d="M254.181 249.243L253.004 270.673C242.937 271.075 235.597 266.984 232.232 261.524L232.724 246.869L254.181 249.243Z" fill="#FFA4AD"/>
<path d="M226.04 222.416C226.04 222.416 216.393 221.21 217.496 233.318C218.354 242.705 231.092 255.233 231.092 255.233C231.092 255.233 239.135 226.945 226.04 222.416Z" fill="#8F4A3F"/>
<path d="M265.442 231.136C264.785 232.633 263.773 233.939 262.943 235.345C262.123 236.751 261.466 238.358 261.649 239.984C261.484 237.345 259.743 235.126 258.238 232.962C256.734 230.789 255.366 228.159 256.086 225.621C256.77 223.183 261.174 219.338 263.855 220.918C266.837 222.671 266.609 228.479 265.442 231.136Z" fill="#0E1235"/>
<path d="M262.168 231.62C262.168 231.62 262.916 239.034 261.877 247.243C260.673 256.73 261.102 267.87 247.141 268.619C232.241 269.413 227.308 252.712 227.308 252.712C227.308 252.712 219.393 251.233 218.855 245.882C218.317 240.522 223.843 240.221 225.648 241.728C225.648 241.728 227.691 221.758 246.12 221.758C262.378 221.74 262.168 231.62 262.168 231.62Z" fill="#FBD5D9"/>
<path d="M244.66 246.859C244.66 247.672 244.004 248.338 243.183 248.338C242.363 248.338 241.706 247.681 241.706 246.859C241.706 246.047 242.363 245.38 243.183 245.38C244.004 245.38 244.66 246.047 244.66 246.859Z" fill="#9A5449"/>
<path d="M258.01 246.859C258.01 247.672 257.353 248.338 256.533 248.338C255.712 248.338 255.056 247.681 255.056 246.859C255.056 246.047 255.712 245.38 256.533 245.38C257.353 245.38 258.01 246.047 258.01 246.859Z" fill="#9A5449"/>
<path d="M237.813 241.719C237.813 241.719 240.001 238.112 244.661 239.408" stroke="#561E15" stroke-width="1.0274" stroke-miterlimit="10" stroke-linecap="round" stroke-linejoin="round"/>
<path d="M252.694 239.354C252.694 239.354 256.059 236.277 259.369 239.646" stroke="#561E15" stroke-width="1.0274" stroke-miterlimit="10" stroke-linecap="round" stroke-linejoin="round"/>
<path d="M249.74 243.015C249.74 243.015 251.335 247.097 252.694 249.635C254.053 252.174 250.041 253.306 250.041 253.306" stroke="#D66D78" stroke-width="0.7706" stroke-miterlimit="10" stroke-linecap="round" stroke-linejoin="round"/>
<path d="M244.396 257.871C244.396 257.871 247.688 261.067 251.919 259.113" stroke="#D66D78" stroke-width="0.7706" stroke-miterlimit="10" stroke-linecap="round" stroke-linejoin="round"/>
<path d="M225.383 247.598C225.383 247.598 225.338 243.006 221.91 244.257" stroke="#D66D78" stroke-width="0.7706" stroke-miterlimit="10" stroke-linecap="round" stroke-linejoin="round"/>
<path d="M229.907 226.251C229.907 226.251 238.287 234.797 233.7 238.066C228.594 241.709 227.8 246.859 227.8 246.859C227.8 246.859 227.91 245.042 225.639 241.719C223.369 238.386 218.417 226.57 229.907 226.251Z" fill="#8F4A3F"/>
<path d="M304.314 366.157C310.406 370.129 356.701 320.611 356.701 320.611L348.485 309.846C348.485 309.846 313.287 331.961 308.226 335.102C300.931 339.622 283.825 352.807 304.314 366.157Z" fill="#04D361"/>
<path d="M279.694 337.367C279.694 337.367 281.764 314.731 281.409 307.544C281.409 307.544 284.354 326.546 284.427 344.105L279.694 337.367Z" fill="#03A14A"/>
<path d="M201.466 329.651C201.466 329.651 212.308 283.165 200.709 283.712C200.709 283.712 196.925 284.169 189.521 295.674C184.341 303.719 178.67 317.662 168.329 340.343C163.442 351.063 157.332 365.572 168.676 366.349C174.812 366.769 181.25 363.408 185.043 356.35C191.992 343.42 201.466 329.651 201.466 329.651Z" fill="#04D361"/>
<path d="M211.168 387.514L270.174 373.589C270.165 373.589 251.609 387.514 211.168 387.514Z" fill="#03A14A"/>
<path d="M195.32 338.992C195.32 338.992 204.84 322.109 209.901 313.872L198.019 378.456C198.019 378.456 196.861 352.077 195.32 338.992Z" fill="#03A14A"/>
<path d="M233.262 360.989L197.974 377.488L199.788 360.523L233.262 360.989Z" fill="#03A14A"/>
<path d="M239.043 358.166L239.043 358.166L244.87 326.308L244.87 326.306C245.173 324.628 246.634 323.412 248.345 323.412H260.728C262.932 323.412 264.602 325.412 264.202 327.588L264.202 327.589L258.376 359.446C258.376 359.446 258.376 359.446 258.376 359.446C258.064 361.127 256.601 362.342 254.901 362.342H242.518C240.313 362.342 238.643 360.343 239.043 358.166Z" fill="#04D361" stroke="#04D361"/>
<path d="M256.433 364.193H244.049C241.533 364.193 239.627 361.911 240.083 359.427L245.91 327.569C246.256 325.651 247.925 324.263 249.876 324.263H262.259C264.776 324.263 266.682 326.546 266.226 329.03L260.399 360.888C260.053 362.805 258.384 364.193 256.433 364.193Z" fill="white"/>
<path d="M247.231 335.553L247.232 335.548L248.654 327.768L248.654 327.768L248.655 327.765C248.676 327.643 248.784 327.549 248.919 327.549H251.135C251.307 327.549 251.432 327.703 251.401 327.867L251.4 327.872L249.977 335.651L249.977 335.651L249.977 335.655C249.956 335.777 249.848 335.871 249.712 335.871H247.497C247.325 335.871 247.199 335.717 247.231 335.553Z" fill="#04D361" stroke="#04D361"/>
<path d="M221.627 346.963C221.627 346.963 227.664 346.762 232.287 345.347C234.275 344.735 238.214 344.023 239.518 342.133C240.831 340.225 240.712 336.106 242.025 335.933C243.038 335.796 245.062 339.019 244.542 341.192C244.032 343.32 243.785 344.498 243.01 345.448C242.755 345.767 251.263 346.37 256.652 345.183C260.345 344.37 259.25 348.032 256.743 349.182C256.743 349.182 257.636 351.419 255.019 352.177C255.019 352.177 255.047 355.163 252.548 355.3C252.266 355.994 251.782 357.473 249.621 358.003C246.475 358.779 241.725 359.071 236.937 358.642C234.503 358.423 223.268 360.395 223.268 360.395L221.627 346.963Z" fill="#FFCAD0"/>
<path d="M168.311 366.522C176.928 368.029 228.293 362.221 228.293 362.221L227.016 344.224C227.016 344.224 185.162 346.178 179.581 345.676C161.125 344.041 157.587 364.65 168.311 366.522Z" fill="#04D361"/>
<path d="M231.94 212.681C232.825 211.796 233.81 210.855 235.05 210.718C236.29 210.581 237.703 211.741 237.293 212.928C241.515 211.092 245.928 209.723 250.442 208.846C251.573 208.627 252.794 208.444 253.843 208.947C254.883 209.449 255.53 210.901 254.819 211.805C257.007 212.626 259.433 212.088 261.758 211.814C264.083 211.54 266.737 211.659 268.314 213.384C269.782 214.982 269.81 217.393 269.764 219.566C269.691 222.543 269.618 225.538 268.943 228.441C267.94 232.733 265.606 236.696 262.332 239.645C263.308 236.303 261.567 232.596 258.822 230.45C256.086 228.295 252.557 227.446 249.101 227.054C244.962 226.579 240.749 226.688 236.627 227.364C233.518 227.875 229.077 230.094 225.986 228.688C219.138 225.583 229.296 215.329 231.94 212.681Z" fill="#8F4A3F"/>
</g>
<path d="M337.798 251.158H294.922C291.64 251.158 288.977 248.492 288.977 245.204V227.198C288.977 223.911 291.64 221.244 294.922 221.244H337.798C341.081 221.244 343.743 223.911 343.743 227.198V245.204C343.743 248.492 341.081 251.158 337.798 251.158Z" fill="#04D361"/>
<path d="M298.15 249.222V257.422L306.922 248.638L298.15 249.222Z" fill="#04D361"/>
<path d="M301.57 239.625C303.458 239.625 304.989 238.092 304.989 236.201C304.989 234.31 303.458 232.777 301.57 232.777C299.681 232.777 298.15 234.31 298.15 236.201C298.15 238.092 299.681 239.625 301.57 239.625Z" fill="#E6E6F0"/>
<path d="M316.36 239.625C318.249 239.625 319.779 238.092 319.779 236.201C319.779 234.31 318.249 232.777 316.36 232.777C314.471 232.777 312.941 234.31 312.941 236.201C312.941 238.092 314.471 239.625 316.36 239.625Z" fill="#E6E6F0"/>
<path d="M331.15 239.625C333.039 239.625 334.57 238.092 334.57 236.201C334.57 234.31 333.039 232.777 331.15 232.777C329.262 232.777 327.731 234.31 327.731 236.201C327.731 238.092 329.262 239.625 331.15 239.625Z" fill="#E6E6F0"/>
<path d="M455.737 494.882L453.795 518.54H463.871L469.105 494.882H455.737Z" fill="#FEC9CF"/>
<path d="M464.965 513.591C464.965 513.591 469.342 520.668 466.06 521.928C462.777 523.188 441.166 523.298 435.832 522.503C430.497 521.7 447.731 514.386 451.671 513.235C455.619 512.085 456.886 518.084 464.965 513.591Z" fill="#6842C2"/>
<path d="M508.716 494.882L510.649 518.54H500.573L495.348 494.882H508.716Z" fill="#FEC9CF"/>
<path d="M499.479 513.591C499.479 513.591 495.102 520.668 498.385 521.928C501.668 523.188 523.279 523.298 528.613 522.503C533.947 521.7 516.713 514.386 512.774 513.235C508.835 512.085 507.558 518.084 499.479 513.591Z" fill="#6842C2"/>
<path d="M453.713 365.522L449.145 507.373H470.418L475.005 412.894L493.233 510.085L516.403 506.223C516.403 506.223 495.485 400.202 491.929 365.531H453.713V365.522Z" fill="#D8D8E3"/>
<path d="M474.027 419.401L473.304 404.101L474.502 412.901L474.027 419.401Z" fill="#194248" stroke="#C9C9D4"/>
<path d="M485.09 365.522L509.71 507.017" stroke="#C9C9D4" stroke-miterlimit="10" stroke-linecap="round" stroke-linejoin="round"/>
<path d="M479.965 260.962C484.506 260.971 489.33 263.355 490.862 267.637C492.048 270.933 491.154 274.823 492.814 277.909C494.035 280.192 496.479 281.662 497.583 284C499.862 288.858 495.421 294.628 496.835 299.797C498.139 304.581 504.057 307.321 504.549 312.261C504.868 315.411 502.652 318.433 499.798 319.803C496.953 321.182 493.616 321.172 490.497 320.652C482.847 319.365 475.643 315.164 467.892 315.566C464.701 315.73 461.364 316.662 458.409 315.429C456.303 314.552 454.78 312.699 453.44 310.854C451.899 308.736 450.421 306.325 450.567 303.714C450.777 299.879 454.251 297.194 456.33 293.971C458.455 290.675 459.348 286.557 458.756 282.676C455.938 264.231 466.297 264.797 467.619 264.77C468.832 264.743 472.862 262.268 474.458 261.802C476.263 261.282 478.105 260.962 479.965 260.962Z" fill="#D38D00"/>
<path d="M431.3 338.348C426.914 334.85 409.078 323.035 408.904 321.382C408.576 318.277 407.491 315.821 400.844 313.703C400.844 313.703 400.315 314.689 401.236 315.776C402.23 316.953 403.032 317.364 403.032 317.364C403.032 317.364 401.263 318.022 398.655 315.94C396.047 313.858 394.962 312.059 393.85 312.488C393.85 312.488 392.555 311.292 391.935 311.475C391.935 311.475 391.479 311.603 391.561 312.096C390.53 311.922 390.713 314.89 392.509 317.328C395.099 320.825 399.667 323.491 402.348 324.505C404.354 325.263 417.512 344.748 426.33 346.858C428.865 347.442 433.342 339.973 431.3 338.348Z" fill="#FCDDC6"/>
<path d="M445.096 321.063C445.096 321.063 425.382 334.833 423.476 338.257C421.57 341.681 422.993 350.821 431.774 344.95C440.555 339.078 454.415 328.422 454.415 328.422L445.096 321.063Z" fill="#FCDDC6"/>
<path d="M455.227 308.526C455.227 308.526 449.81 309.896 446.199 314.196C443.172 317.803 438.294 323.61 438.294 323.61L453.248 335.243C453.257 335.234 456.905 314.087 455.227 308.526Z" fill="#47248F"/>
<path d="M491.929 365.522H453.704C453.704 365.522 453.859 358.957 451.734 348.757C449.601 338.567 450.667 333.235 452.792 327.911C454.926 322.588 451.123 310.279 455.227 308.526C456.895 307.814 459.795 306.663 462.64 305.558C463.36 305.284 464.072 305.001 464.756 304.737C468.057 303.458 470.838 302.399 470.838 302.399H477.722C477.722 302.399 482.464 303.97 487.333 305.914C487.972 306.17 488.619 306.435 489.257 306.7C489.257 306.709 489.257 306.709 489.257 306.709C491.71 307.741 494.054 308.827 495.649 309.823C500.82 313.018 491.929 365.522 491.929 365.522Z" fill="#6842C2"/>
<path d="M468.521 285.461L469.251 299.632L469.461 303.677C469.552 305.394 470.3 306.928 471.467 308.033C472.625 309.138 474.193 309.804 475.908 309.804C479.537 309.804 482.455 306.809 482.364 303.184L482.181 295.971L481.871 283.982L468.521 285.461Z" fill="#FFDFC8"/>
<path d="M468.521 285.461L469.251 298.811C475.515 299.066 480.093 296.509 482.19 293.113L481.88 283.982L468.521 285.461Z" fill="#DA9F74"/>
<path d="M463.543 274.485C463.543 274.485 463.078 279.106 463.725 284.21C464.473 290.118 465.129 296.884 472.908 297.523C482.172 298.281 485.263 287.616 485.263 287.616C485.263 287.616 489.567 286.611 490.096 283.671C490.625 280.722 487.415 279.836 486.294 280.768C486.294 280.768 485.017 268.331 473.546 268.331C463.406 268.331 463.543 274.485 463.543 274.485Z" fill="#FFDFC8"/>
<path d="M489.257 306.7C489.257 306.709 489.257 306.709 489.257 306.7C481.415 316.269 472.169 315.822 472.169 315.822C464.874 314.224 462.64 305.558 462.64 305.558C463.361 305.284 464.072 305.001 464.756 304.737C468.057 303.458 470.838 302.399 470.838 302.399H477.722C477.722 302.399 482.464 303.97 487.333 305.914C487.972 306.17 488.619 306.435 489.257 306.7Z" fill="#04D361"/>
<path d="M487.333 305.914C479.336 314.616 472.406 313.703 472.406 313.703C464.956 310.845 464.755 304.737 464.755 304.737C468.056 303.458 470.838 302.399 470.838 302.399H477.722C477.722 302.399 482.464 303.97 487.333 305.914Z" fill="#FCDDC6"/>
<path d="M467.537 265.646C467.537 265.646 468.604 274.641 462.832 277.608C462.832 277.608 459.941 266.715 467.537 265.646Z" fill="#D38D00"/>
<path d="M465.786 266.505C465.786 266.505 467.838 274.339 472.926 274.796C478.014 275.252 477.111 279.38 481.616 279.854C484.297 280.137 485.491 282.932 485.491 282.932C485.491 282.932 485.883 280.156 488.309 279.17C490.753 278.183 482.573 257.447 465.786 266.505Z" fill="#D38D00"/>
<path d="M474.421 285.36C474.421 285.853 474.813 286.246 475.306 286.246C475.798 286.246 476.19 285.853 476.19 285.36C476.19 284.867 475.798 284.475 475.306 284.475C474.822 284.475 474.421 284.876 474.421 285.36Z" fill="#60423D"/>
<path d="M466.416 285.36C466.416 285.853 466.808 286.245 467.3 286.245C467.793 286.245 468.185 285.853 468.185 285.36C468.185 284.867 467.784 284.474 467.3 284.474C466.808 284.474 466.416 284.876 466.416 285.36Z" fill="#60423D"/>
<path d="M478.533 282.274C478.533 282.274 477.22 280.11 474.421 280.886" stroke="#561E15" stroke-miterlimit="10" stroke-linecap="round" stroke-linejoin="round"/>
<path d="M469.606 280.859C469.606 280.859 467.582 279.015 465.604 281.032" stroke="#561E15" stroke-miterlimit="10" stroke-linecap="round" stroke-linejoin="round"/>
<path d="M471.375 283.059C471.375 283.059 470.418 285.506 469.606 287.031C468.795 288.556 471.202 289.232 471.202 289.232" stroke="#DA9F74" stroke-width="0.75" stroke-miterlimit="10" stroke-linecap="round" stroke-linejoin="round"/>
<path d="M476.682 290.967C476.682 290.967 475.123 293.24 472.406 292.592" stroke="#DA9F74" stroke-width="0.75" stroke-miterlimit="10" stroke-linecap="round" stroke-linejoin="round"/>
<path d="M486.266 284.739C486.266 284.739 486.294 281.982 488.345 282.74" stroke="#DA9F74" stroke-width="0.75" stroke-miterlimit="10" stroke-linecap="round" stroke-linejoin="round"/>
<path d="M454.488 356.409H419.473C418.78 356.409 418.215 355.843 418.215 355.149C418.215 354.455 418.78 353.889 419.473 353.889H454.488C455.181 353.889 455.747 354.455 455.747 355.149C455.738 355.852 455.181 356.409 454.488 356.409Z" fill="#04D361"/>
<path d="M415.535 326.622L415.535 326.622L415.535 326.62C415.323 325.777 415.968 324.951 416.837 324.951H448.378C448.998 324.951 449.534 325.371 449.68 325.966L449.68 325.968L456.475 353.398H422.171L415.535 326.622Z" fill="#04D361" stroke="#04D361"/>
<path d="M454.689 353.898H419.354L412.625 326.742C412.333 325.583 413.218 324.451 414.412 324.451H445.953C446.801 324.451 447.54 325.026 447.74 325.848L454.689 353.898Z" fill="white"/>
<path d="M481.588 356.409H455.09C454.442 356.409 453.914 355.88 453.914 355.231V355.076C453.914 354.428 454.442 353.898 455.09 353.898H481.588C482.236 353.898 482.765 354.428 482.765 355.076V355.231C482.774 355.889 482.245 356.409 481.588 356.409Z" fill="#04D361"/>
<path d="M434.48 337.632L434.48 337.633C435.072 339.168 434.519 340.577 433.571 340.95C432.628 341.312 431.274 340.639 430.681 339.1C430.088 337.561 430.645 336.147 431.589 335.783C432.533 335.419 433.888 336.086 434.48 337.632Z" fill="#04D361" stroke="#04D361"/>
<path d="M493.862 353.898L491.564 324.076L495.978 336.631L493.862 353.898Z" fill="#47248F"/>
<path d="M494.163 327.108C494.163 327.108 499.616 356.455 500.965 361.258C501.841 364.362 508.206 366.481 510.203 362.372C510.64 361.468 510.54 359.961 510.494 358.427C510.184 348.94 503.555 324.797 503.555 324.797L494.163 327.108Z" fill="#FCDDC6"/>
<path d="M495.658 309.823C495.658 309.823 498.914 311.494 501.649 316.214C504.385 320.935 508.16 329.263 507.923 331.281C506.5 335.161 495.266 339.179 495.266 339.179C495.266 339.179 487.762 314.479 495.658 309.823Z" fill="#6842C2"/>
<path d="M501.959 355.587C501.959 355.587 484.643 355.204 481.36 353.25C476.911 350.593 475.88 351.743 473.3 351.104C469.16 350.072 469.616 350.912 469.616 350.912C469.616 350.912 469.807 353.314 473.008 353.615C474.622 353.77 477.038 354.455 476.528 354.848C476.528 354.848 463.689 356.19 461.108 356.418C458.528 356.647 459.786 358.637 461.756 359.094C461.756 359.094 462.932 360.582 464.838 360.126C464.838 360.126 464.418 360.966 469.36 360.966C474.303 360.966 479.263 358.336 481.771 359.477C484.278 360.619 497.82 365.869 506.409 364.655C510.513 364.07 510.54 362.098 510.54 360.016C510.54 356.409 507.877 355.953 501.959 355.587Z" fill="#FCDDC6"/>
<path d="M142.705 494.882L136.988 518.54H126.912L129.338 494.882H142.705Z" fill="#BC8567"/>
<path d="M125.818 513.591C125.818 513.591 121.441 520.668 124.724 521.928C128.007 523.188 149.618 523.298 154.952 522.503C160.286 521.7 143.052 514.386 139.113 513.235C135.174 512.085 133.897 518.084 125.818 513.591Z" fill="#6842C2"/>
<path d="M110.973 494.882L107.517 518.54H97.4406L97.6047 494.882H110.973Z" fill="#BC8567"/>
<path d="M96.347 513.591C96.347 513.591 91.9701 520.668 95.2528 521.928C98.5354 523.188 120.146 523.298 125.481 522.503C130.815 521.7 113.581 514.386 109.642 513.235C105.703 512.085 104.426 518.084 96.347 513.591Z" fill="#6842C2"/>
<path d="M94.04 380.461L94.7877 506.707H110.782L122.08 413.953L134.955 451.591L125.317 506.716H142.715C142.715 506.716 158.007 459.079 157.387 449.729C156.767 440.369 139.113 376.616 139.113 376.616L94.04 380.461Z" fill="#D8D8E3"/>
<path d="M124.944 420.816L122.579 413.894L123.681 402.693L124.944 420.816Z" fill="#C9C9D4" stroke="#C9C9D4"/>
<path d="M103.068 378.936L102.146 506.716" stroke="#C9C9D4" stroke-miterlimit="10"/>
<path d="M152.043 322.643C152.043 322.643 162.374 342.21 162.602 348.219C162.83 354.227 156.219 352.885 152.8 347.47C149.381 342.046 143.909 326.669 143.909 326.669L152.043 322.643Z" fill="#BC8567"/>
<path d="M153.976 324.277C153.976 324.277 151.013 329.555 143.909 332.778C142.441 333.445 141.201 331.682 140.28 329.591C139.213 327.153 138.593 324.277 138.593 324.277C138.593 324.277 130.45 299.048 137.627 299.952C137.627 299.952 143.736 300.381 148.222 309.238C149.399 311.548 151.232 316.205 152.764 320.625C153.201 321.885 153.612 323.117 153.976 324.277Z" fill="#47248F"/>
<path d="M153.976 324.277C153.976 324.277 151.013 329.555 143.909 332.778C142.441 333.445 141.201 331.682 140.28 329.591C143.061 328.34 148.323 325.528 152.764 320.625C153.201 321.885 153.612 323.117 153.976 324.277Z" fill="#04D361"/>
<path d="M139.478 377.995C134.964 383.127 105.247 382.369 94.0308 380.46C92.0612 380.123 90.1189 379.365 93.2283 372.498C94.3955 369.932 93.894 363.331 93.6934 354.254C93.3013 336.312 87.9852 306.545 94.5414 303.129C98.4715 301.075 106.815 298.372 112.879 296.528C113.244 296.427 113.599 296.318 113.946 296.208C117.484 295.149 120.01 294.446 120.01 294.446C120.01 294.446 122.937 294.875 128.891 296.637C129.21 296.729 129.557 296.838 129.903 296.939C131.453 297.413 133.177 297.961 135.101 298.619C138.83 299.888 141.566 300.664 142.232 301.906C144.01 305.166 143.326 310.946 143.435 319.273C143.581 329.728 143.472 373.466 139.478 377.995Z" fill="#6842C2"/>
<path d="M92.2983 333.938L98.7086 318.287L94.0399 358.546L92.2983 333.938Z" fill="#47248F"/>
<path d="M129.903 296.948C129.766 299.158 128.773 301.102 127.277 302.527C125.745 303.988 123.675 304.874 121.423 304.874C116.763 304.874 112.988 301.139 112.897 296.519C113.262 296.418 113.617 296.309 113.964 296.199C117.502 295.14 120.028 294.437 120.028 294.437C120.028 294.437 122.955 294.866 128.909 296.628C129.219 296.747 129.557 296.847 129.903 296.948Z" fill="#04D361"/>
<path d="M133.789 262.5C133.789 262.5 130.413 259.269 125.304 258.5C117.83 257.376 107.991 259.81 106.031 271.235C104.481 277.818 112.496 288.639 115.523 288.008C115.523 288.008 142.774 270.735 133.789 262.5Z" fill="#43302D"/>
<path d="M128.882 278.33L128.153 292.501L127.943 296.546C127.861 298.263 127.104 299.797 125.937 300.902C124.779 302.006 123.21 302.673 121.496 302.673C117.867 302.673 114.949 299.678 115.04 296.053L115.222 288.839L115.532 276.85L128.882 278.33Z" fill="#BC8567"/>
<path d="M128.882 281.151L128.153 294.501C121.888 294.756 117.311 292.2 115.213 288.803L115.523 279.672L128.882 281.151Z" fill="#765441"/>
<path d="M133.852 270.176C133.852 270.176 134.317 274.796 133.669 279.9C132.922 285.808 133.186 292.747 124.487 293.213C115.204 293.706 112.131 283.306 112.131 283.306C112.131 283.306 107.198 282.384 106.861 279.051C106.523 275.718 109.97 275.526 111.092 276.458C111.092 276.458 112.368 264.021 123.839 264.021C133.988 264.03 133.852 270.176 133.852 270.176Z" fill="#BC8567"/>
<path d="M123.237 279.106C123.237 279.617 122.827 280.028 122.317 280.028C121.806 280.028 121.396 279.617 121.396 279.106C121.396 278.594 121.806 278.183 122.317 278.183C122.818 278.183 123.237 278.594 123.237 279.106Z" fill="#60423D"/>
<path d="M132.11 278.631C132.11 279.142 131.699 279.553 131.189 279.553C130.678 279.553 130.268 279.142 130.268 278.631C130.268 278.119 130.678 277.709 131.189 277.709C131.699 277.709 132.11 278.119 132.11 278.631Z" fill="#60423D"/>
<path d="M118.687 276.467C118.687 276.467 120.046 274.221 122.954 275.033" stroke="#43302D" stroke-miterlimit="10" stroke-linecap="round" stroke-linejoin="round"/>
<path d="M127.952 274.997C127.952 274.997 130.049 273.079 132.109 275.179" stroke="#43302D" stroke-miterlimit="10" stroke-linecap="round" stroke-linejoin="round"/>
<path d="M126.119 277.279C126.119 277.279 127.113 279.818 127.961 281.407C128.809 282.986 126.301 283.689 126.301 283.689" stroke="#765441" stroke-width="0.75" stroke-miterlimit="10" stroke-linecap="round" stroke-linejoin="round"/>
<path d="M122.782 286.529C122.782 286.529 124.833 288.519 127.468 287.305" stroke="#765441" stroke-width="0.75" stroke-miterlimit="10" stroke-linecap="round" stroke-linejoin="round"/>
<path d="M110.945 280.127C110.945 280.127 110.918 277.27 108.785 278.046" stroke="#765441" stroke-width="0.75" stroke-miterlimit="10" stroke-linecap="round" stroke-linejoin="round"/>
<path d="M113.763 266.834C113.763 266.834 118.979 272.157 116.125 274.193C112.952 276.458 112.45 279.672 112.45 279.672C112.45 279.672 112.514 278.54 111.101 276.467C109.687 274.394 106.605 267.034 113.763 266.834Z" fill="#43302D"/>
<path d="M85.2041 323.693C85.2041 323.693 74.8727 343.261 74.6448 349.269C74.4168 355.277 81.0278 353.935 84.4472 348.52C87.8667 343.096 93.3379 327.719 93.3379 327.719L85.2041 323.693Z" fill="#BC8567"/>
<path d="M158.873 341.598C158.873 341.598 143.472 330.185 142.596 329.536C141.11 328.422 138.94 326.806 138.156 326.258C136.915 325.391 129.666 324.131 128.654 324.295C127.651 324.459 124.87 324.934 124.058 325.235C123.247 325.537 124.268 326.578 125.07 327.071C125.873 327.564 129.429 329.408 132.447 329.965C134.125 330.276 135.566 331.125 136.742 331.974C137.681 332.65 153.931 349.241 154.542 349.643L158.873 341.598Z" fill="#BC8567"/>
<path d="M139.806 327.592C139.806 327.592 134.007 322.159 133.14 322.241C132.283 322.323 132.894 323.547 135.174 325.4C135.949 326.03 136.779 327.026 137.472 327.354C138.83 327.993 139.806 327.592 139.806 327.592Z" fill="#BC8567"/>
<path d="M135.133 347.165L135.135 347.165C135.648 347.107 136.073 346.736 136.204 346.23L136.204 346.23L141.255 326.781C141.255 326.781 141.255 326.781 141.255 326.781C141.255 326.781 141.255 326.781 141.255 326.781C141.477 325.926 140.765 325.107 139.884 325.212C139.883 325.212 139.883 325.212 139.883 325.212L118.738 327.741L118.735 327.741L118.735 327.741C118.223 327.8 117.798 328.171 117.667 328.676L117.667 328.676L112.615 348.125C112.394 348.981 113.105 349.799 113.987 349.695L135.133 347.165ZM135.133 347.165L113.987 349.695L135.133 347.165Z" fill="#04D361" stroke="#04D361"/>
<path d="M136.132 348.31L114.986 350.839C113.755 350.985 112.761 349.844 113.071 348.648L118.123 329.199C118.305 328.496 118.898 327.975 119.618 327.893L140.764 325.364C141.995 325.217 142.989 326.359 142.679 327.555L137.627 347.004C137.445 347.698 136.852 348.219 136.132 348.31Z" fill="white"/>
<path d="M119.863 333.108L119.863 333.108L119.862 333.113C119.861 333.117 119.857 333.126 119.845 333.137C119.833 333.147 119.818 333.155 119.8 333.159L118.794 333.276L118.794 333.276C118.773 333.278 118.754 333.272 118.739 333.254C118.723 333.236 118.719 333.217 118.724 333.196L118.724 333.196L119.718 329.379L119.718 329.379L119.721 329.37C119.725 329.351 119.742 329.333 119.768 329.33L120.787 329.211L120.787 329.211C120.808 329.209 120.827 329.216 120.842 329.234C120.858 329.252 120.862 329.271 120.857 329.291L120.857 329.292L119.863 333.108ZM120.347 333.234L121.34 329.418L119.873 333.654C120.1 333.617 120.292 333.453 120.347 333.234Z" fill="#04D361" stroke="#04D361"/>
<path d="M78.593 343.48C85.049 343.735 105.228 343.315 107.9 342.402C109.049 342.01 111.876 341.416 112.596 340.293C113.326 339.152 113.946 337.417 114.703 337.289C115.286 337.188 115.149 339.069 114.976 339.754C114.648 340.987 114.429 341.626 113.991 342.192C113.845 342.384 118.815 343.096 121.934 342.302C124.076 341.754 123.675 343.471 122.235 344.192C122.235 344.192 122.809 345.689 121.295 346.183C121.295 346.183 121.56 347.844 120.101 347.972C119.946 348.383 119.49 349.123 118.231 349.479C116.408 349.99 113.244 349.981 110.836 350.081C109.414 350.136 81.9213 354.437 77.0611 353.213C75.0368 352.702 76.4957 343.398 78.593 343.48Z" fill="#BC8567"/>
<path d="M97.122 326.322C97.122 326.322 96.6478 328.121 95.9457 329.975C95.1615 332.02 94.0946 334.12 93.046 333.929C93.046 333.929 78.7845 329.418 79.2587 327.957C79.6143 326.87 80.2253 325.455 80.9821 323.884C83.3438 318.972 87.0915 312.562 88.6052 310.078C93.7663 301.595 95.8819 302.673 95.8819 302.673C103.113 302.326 97.122 326.322 97.122 326.322Z" fill="#6842C2"/>
<path d="M95.9457 329.975C95.1615 332.02 94.0946 334.12 93.046 333.929C93.046 333.929 78.7845 329.418 79.2587 327.957C79.6143 326.87 80.2253 325.455 80.9821 323.884C83.6083 325.126 90.6934 328.386 95.9457 329.975Z" fill="#04D361"/>
<path d="M100.469 369.96C100.469 369.96 124.177 366.152 136.943 358.546C136.943 358.546 122.663 372.854 100.469 369.96Z" fill="#47248F"/>
<path d="M396.148 460.439H334.497C331.46 460.439 329.008 457.974 329.008 454.943V425.111C329.008 422.071 331.47 419.614 334.497 419.614H396.148C399.184 419.614 401.637 422.08 401.637 425.111V454.933C401.646 457.974 399.184 460.439 396.148 460.439Z" fill="#6842C2"/>
<path d="M335.545 449.893C341.29 449.893 341.29 443.045 347.034 443.045C352.779 443.045 352.779 433.914 358.524 433.914C364.269 433.914 364.269 437.411 370.013 437.411C375.758 437.411 375.758 428.965 381.503 428.965C387.247 428.965 387.247 442.214 392.992 442.214" stroke="white" stroke-width="2" stroke-miterlimit="10" stroke-linecap="round" stroke-linejoin="round"/>
<path d="M337.223 449.893C337.223 448.971 336.475 448.222 335.554 448.222C334.633 448.222 333.886 448.971 333.886 449.893C333.886 450.815 334.633 451.563 335.554 451.563C336.475 451.563 337.223 450.815 337.223 449.893Z" fill="white"/>
<path d="M394.67 442.223C394.67 441.301 393.922 440.552 393.001 440.552C392.08 440.552 391.333 441.301 391.333 442.223C391.333 443.145 392.08 443.893 393.001 443.893C393.922 443.893 394.67 443.145 394.67 442.223Z" fill="white"/>
<path d="M39.6203 245.047H101.198C105.32 245.047 108.666 241.696 108.666 237.568V218.749C108.666 214.622 105.32 211.271 101.198 211.271H39.6203C35.4987 211.271 32.1522 214.622 32.1522 218.749V237.568C32.1522 241.705 35.4987 245.047 39.6203 245.047Z" fill="#6842C2"/>
<path d="M99.4928 243.111V251.311L90.7116 242.527L99.4928 243.111Z" fill="#6842C2"/>
<path d="M39.2281 219.562H56.2981" stroke="white" stroke-width="2.2165" stroke-miterlimit="10" stroke-linecap="round" stroke-linejoin="round"/>
<path d="M62.3802 219.562H101.59" stroke="white" stroke-width="2.2165" stroke-miterlimit="10" stroke-linecap="round" stroke-linejoin="round"/>
<path d="M39.2281 228.163H71.052" stroke="white" stroke-width="2.2165" stroke-miterlimit="10" stroke-linecap="round" stroke-linejoin="round"/>
<path d="M75.9214 228.163H85.3409" stroke="white" stroke-width="2.2165" stroke-miterlimit="10" stroke-linecap="round" stroke-linejoin="round"/>
<path d="M90.3925 228.163H101.59" stroke="white" stroke-width="2.2165" stroke-miterlimit="10" stroke-linecap="round" stroke-linejoin="round"/>
<path d="M39.2281 236.756H46.4318" stroke="white" stroke-width="2.2165" stroke-miterlimit="10" stroke-linecap="round" stroke-linejoin="round"/>
<path d="M50.8452 236.756H76.8331" stroke="white" stroke-width="2.2165" stroke-miterlimit="10" stroke-linecap="round" stroke-linejoin="round"/>
<path d="M422.892 214.551H407.09C404.153 214.551 401.773 212.168 401.773 209.228V193.404C401.773 190.464 404.153 188.08 407.09 188.08H422.892C425.828 188.08 428.208 190.464 428.208 193.404V209.228C428.208 212.168 425.828 214.551 422.892 214.551Z" fill="#6842C2"/>
<path d="M423.986 199.95L423.594 198.215C423.521 197.877 423.174 197.667 422.837 197.74L421.815 197.978C421.551 198.042 421.287 197.914 421.141 197.686C420.739 197.055 420.247 196.489 419.682 196.015C419.454 195.823 419.381 195.512 419.508 195.248L420.019 194.197C420.174 193.887 420.037 193.504 419.727 193.357L418.122 192.581C417.812 192.426 417.429 192.563 417.283 192.873L416.736 194.015C416.618 194.271 416.335 194.398 416.062 194.362C415.724 194.316 415.369 194.289 415.022 194.289C414.666 194.289 414.32 194.316 413.983 194.362C413.7 194.398 413.426 194.271 413.308 194.015L412.761 192.873C412.606 192.563 412.232 192.426 411.922 192.581L410.317 193.357C410.007 193.513 409.87 193.887 410.025 194.197L410.536 195.248C410.663 195.512 410.581 195.823 410.363 196.015C409.797 196.499 409.296 197.055 408.904 197.686C408.758 197.914 408.493 198.042 408.229 197.978L407.207 197.74C406.87 197.667 406.533 197.877 406.451 198.215L406.059 199.95C405.986 200.288 406.195 200.626 406.533 200.708L407.828 201C407.818 201.183 407.8 201.356 407.8 201.539C407.8 202.406 407.955 203.246 408.238 204.013C408.329 204.269 408.265 204.561 408.046 204.735L407.545 205.136C407.271 205.356 407.226 205.748 407.445 206.022L408.502 207.419C408.721 207.693 409.113 207.739 409.387 207.52L409.733 207.237C409.97 207.054 410.299 207.063 410.527 207.246C411.256 207.812 412.086 208.25 412.998 208.515C413.271 208.597 413.472 208.835 413.472 209.127V209.492C413.472 209.839 413.755 210.122 414.101 210.122H415.879C416.226 210.122 416.508 209.839 416.508 209.492V209.127C416.508 208.835 416.709 208.597 416.983 208.515C417.894 208.25 418.724 207.821 419.454 207.246C419.691 207.063 420.019 207.045 420.247 207.237L420.594 207.52C420.867 207.739 421.259 207.693 421.478 207.419L422.591 206.031C422.809 205.757 422.764 205.365 422.49 205.146L421.989 204.744C421.77 204.57 421.706 204.278 421.797 204.023C422.08 203.246 422.235 202.415 422.235 201.548C422.235 201.365 422.217 201.192 422.208 201.009L423.502 200.717C423.849 200.626 424.059 200.288 423.986 199.95ZM414.995 206.05C412.505 206.05 410.49 204.032 410.49 201.539C410.49 199.046 412.505 197.028 414.995 197.028C417.484 197.028 419.499 199.046 419.499 201.539C419.499 204.032 417.484 206.05 414.995 206.05Z" fill="white"/>
<path d="M563.142 319.35C564.761 309.369 557.993 299.966 548.026 298.348C538.059 296.73 528.666 303.509 527.047 313.489C525.428 323.469 532.196 332.872 542.163 334.491C552.13 336.109 561.523 329.33 563.142 319.35Z" fill="#6842C2"/>
<path d="M555.102 318.823C556.407 313.292 552.987 307.751 547.463 306.446C541.94 305.141 536.404 308.567 535.098 314.097C533.793 319.628 537.212 325.17 542.736 326.475C548.26 327.78 553.796 324.354 555.102 318.823Z" fill="#6842C2" stroke="white" stroke-width="2" stroke-miterlimit="10" stroke-linecap="round" stroke-linejoin="round"/>
<path d="M545.081 309.695V316.424L541.534 319.976" fill="#6842C2"/>
<path d="M545.081 309.695V316.424L541.534 319.976" stroke="white" stroke-width="2" stroke-miterlimit="10" stroke-linecap="round" stroke-linejoin="round"/>
<path d="M545.081 306.134V307.12" stroke="white" stroke-width="2" stroke-miterlimit="10" stroke-linecap="round" stroke-linejoin="round"/>
<path d="M545.081 325.738V326.715" stroke="white" stroke-width="2" stroke-miterlimit="10" stroke-linecap="round" stroke-linejoin="round"/>
<path d="M555.358 316.424H554.373" stroke="white" stroke-width="2" stroke-miterlimit="10" stroke-linecap="round" stroke-linejoin="round"/>
<path d="M535.79 316.424H534.804" stroke="white" stroke-width="2" stroke-miterlimit="10" stroke-linecap="round" stroke-linejoin="round"/>
<path d="M164.759 43.3721H112.803C98.9776 43.3721 92 50.0833 92 63.3766V134.522C92 136.265 92.9359 137.338 94.9524 137.338H110.658C112.537 137.338 113.747 136.265 113.747 134.522V131.821C113.747 125.231 116.524 121.64 123.426 120.947H164.759C179.924 120.947 186.772 114.373 186.772 100.007V64.3125C186.772 49.9464 179.924 43.3721 164.759 43.3721ZM165.048 93.9654C165.048 101.757 163.283 103.363 154.015 103.363H132.001C122.741 103.363 116.829 106.452 113.739 112.494V68.6117C113.739 62.57 115.216 60.9568 122.596 60.9568H154.015C163.283 60.9568 165.048 62.57 165.048 70.3542V93.9654Z" fill="white"/>
<path d="M236.574 82.7038C224.628 82.7038 219.522 88.7455 219.522 98.9494V134.789C219.522 136.402 218.715 137.338 216.836 137.338H202.607C200.727 137.338 199.791 136.402 199.791 134.789V69.2813C199.791 67.6681 200.727 66.7246 202.607 66.7246H214.553C216.303 66.7246 217.239 67.6681 217.239 69.2813V79.8504C219.522 71.1303 226.104 66.6942 237.784 66.6942H242.616C244.358 66.6942 245.294 67.6377 245.294 69.2508V80.1548C245.294 81.8973 244.358 82.7038 242.616 82.7038H236.574Z" fill="white"/>
<path d="M329.193 118.14C329.193 131.433 323.288 137.338 309.196 137.338H274.293C260.33 137.338 254.288 131.433 254.288 118.14V85.9377C254.288 72.6521 260.33 66.7398 274.293 66.7398H309.196C323.288 66.7398 329.193 72.6521 329.193 85.9377V118.14ZM309.462 91.0283C309.462 84.043 308.123 82.7038 299.799 82.7038H283.819C275.366 82.7038 274.019 84.043 274.019 91.0283V113.042C274.019 120.019 275.366 121.366 283.819 121.366H299.799C308.123 121.366 309.462 120.019 309.462 113.042V91.0283Z" fill="white"/>
<path d="M349.06 82.7038H342.341C340.591 82.7038 339.655 81.8973 339.655 80.1548V69.2813C339.655 67.6681 340.591 66.7246 342.341 66.7246H349.053V58.0045C349.06 44.7113 356.038 38 369.864 38H386.376C388.255 38 389.062 38.9435 389.062 40.5491V51.4226C389.062 53.1727 388.255 53.9716 386.376 53.9716H377.656C370.267 53.9716 368.791 55.5848 368.791 61.6264V66.7246H386.376C388.255 66.7246 389.062 67.6681 389.062 69.2813V80.1548C389.062 81.8973 388.255 82.7038 386.376 82.7038H368.791V134.789C368.791 136.402 367.855 137.338 365.975 137.338H351.746C349.867 137.338 349.06 136.402 349.06 134.789V82.7038Z" fill="white"/>
<path d="M403.831 82.7038H397.127C395.385 82.7038 394.449 81.8973 394.449 80.1548V69.2813C394.449 67.6681 395.385 66.7246 397.127 66.7246H403.846V58.0045C403.831 44.7113 410.824 38 424.634 38H441.146C443.026 38 443.832 38.9435 443.832 40.5491V51.4226C443.832 53.1727 443.026 53.9716 441.146 53.9716H432.419C425.038 53.9716 423.562 55.5848 423.562 61.6264V66.7246H441.146C443.026 66.7246 443.832 67.6681 443.832 69.2813V80.1548C443.832 81.8973 443.026 82.7038 441.146 82.7038H423.562V134.789C423.562 136.402 422.618 137.338 420.739 137.338H406.509C404.63 137.338 403.831 136.402 403.831 134.789V82.7038Z" fill="white"/>
<path d="M503.831 164.723H474.566C461.417 164.723 455.779 159.625 455.779 147.001V145.662C455.74 145.302 455.782 144.937 455.904 144.596C456.025 144.254 456.221 143.944 456.479 143.689C456.736 143.434 457.047 143.24 457.39 143.122C457.733 143.004 458.097 142.964 458.457 143.006H472.154C474.033 143.006 474.969 143.95 474.969 145.692V146.362C474.969 149.048 476.453 150.121 479.405 150.121H496.32C504.371 150.121 506.387 148.112 506.387 141.264V120.088C503.298 126.129 497.393 129.219 488.125 129.219H474.429C460.466 129.219 454.287 123.314 454.287 110.021V69.2813C454.269 68.9295 454.327 68.5779 454.458 68.2507C454.588 67.9234 454.788 67.6283 455.043 67.3854C455.298 67.1426 455.602 66.9578 455.936 66.8437C456.269 66.7296 456.623 66.689 456.973 66.7246H471.34C473.082 66.7246 474.026 67.6681 474.026 69.2813V104.961C474.026 111.938 475.502 113.285 483.826 113.285H494.03C502.887 113.285 506.38 109.655 506.38 102.275V69.2813C506.38 67.6681 507.316 66.7246 509.066 66.7246H523.439C523.783 66.6914 524.13 66.7348 524.455 66.8517C524.78 66.9685 525.075 67.1559 525.318 67.4004C525.562 67.6449 525.749 67.9404 525.864 68.2656C525.98 68.5908 526.023 68.9377 525.989 69.2813V143.379C525.981 157.464 518.463 164.723 503.831 164.723Z" fill="white"/>
</svg>
